<?xml version="1.0" encoding="utf-8" ?>
<svg baseProfile="full" height="200mm" version="1.1" viewBox="0,0,200,200" width="200mm" xmlns="http://www.w3.org/2000/svg" xmlns:ev="http://www.w3.org/2001/xml-events" xmlns:xlink="http://www.w3.org/1999/xlink"><defs /><rect fill="#1a1a1a" height="200" width="200" x="0" y="0" /><text alignment-baseline="middle" fill="#e1ed5e" style="dominant-baseline: central; font-size:9.0px; font-family:Arial;" text-anchor="middle" x="100.0" y="100.0">2017</text><line stroke="#e1ed5e" stroke-width="0.3" x1="100.0" x2="100.0" y1="15.0" y2="10.0" /><path d="M 100.0 14.0 a86.0,86.0 0 0,1 42.46469731375804,11.215312516191453" fill="none" id="id25" stroke="none" /><text fill="#e1ed5e" style="font-size:6.75px; font-family:Arial;" text-anchor="middle"><textPath startOffset="22.20632615414155" xlink:href="#id25">January</textPath></text><line stroke="#e1ed5e" stroke-width="0.3" x1="143.23703022742887" x2="145.7803849466894" y1="26.81831364943548" y2="22.513508569990506" /><path d="M 143.74570117128098 25.957352633546492 a86.0,86.0 0 0,1 28.547481713284135,27.462654790039103" fill="none" id="id26" stroke="none" /><text fill="#e1ed5e" style="font-size:6.75px; font-family:Arial;" text-anchor="middle"><textPath startOffset="19.985693538727396" xlink:href="#id26">February</textPath></text><line stroke="#e1ed5e" stroke-width="0.3" x1="172.23445277983987" x2="176.4835382374775" y1="55.19839476539836" y2="52.563006222186495" /><path d="M 173.08426987136738 54.67131705675599 a86.0,86.0 0 0,1 12.851231095245387,41.99856678651699" fill="none" id="id27" stroke="none" /><text fill="#e1ed5e" style="font-size:6.75px; font-family:Arial;" text-anchor="middle"><textPath startOffset="22.20632615414155" xlink:href="#id27">March</textPath></text><line stroke="#e1ed5e" stroke-width="0.3" x1="184.98032266829074" x2="189.97916517819016" y1="98.17113171792111" y2="98.06355123074" /><path d="M 185.9800911702706 98.14961562048488 a86.0,86.0 0 0,1 -9.607161424134198,41.387399972396054" fill="none" id="id28" stroke="none" /><text fill="#e1ed5e" style="font-size:6.75px; font-family:Arial;" text-anchor="middle"><textPath startOffset="21.466115282336823" xlink:href="#id28">April</textPath></text><path d="M 120.99980553446 99.90962569577887 l 3.475403452600866 -0.014956670355880662 a24.47543563605171,24.47543563605171 0 0,0 -0.0018131667409333422,0.42131609520326013 l -3.4751459885704294 -0.044868903051064175" fill="#ff0300" stroke="none" /><path d="M 120.9904718944345 100.63252640178507 l 5.005690025583887 0.15084134917297884 a26.007962234766786,26.007962234766786 0 0,0 -0.01733600000824714,0.4473651294284866 l -5.0023518927244375 -0.23698372561547162" fill="#ff1b02" stroke="none" /><path d="M 120.89721153311464 102.0752229133903 l 5.972650225570048 0.5931212679800701 a27.00202828679874,27.00202828679874 0 0,0 -0.049912218709382006,0.4621251563260177 l -5.961555705359613 -0.6958427461908793" fill="#ff2904" stroke="none" /><path d="M 120.8583938346157 102.4346265915055 l 6.283156513945242 0.7333805300989024 a27.325812420603434,27.325812420603434 0 0,0 -0.05855334845385173,0.4667277983306398 l -6.269601656244542 -0.8414260827169371" fill="#ff2e04" stroke="none" /><path d="M 120.70491114924044 103.5080841355445 l 7.786686552517591 1.3193174974984982 a28.897663333313467,28.897663333313467 0 0,0 -0.08731712126586277,0.48972078704526034 l -7.762822988912539 -1.453157035276977" fill="#ff4506" stroke="none" /><path d="M 120.64145759157962 103.86396538481128 l 7.3447398419084 1.3748942090773404 a28.472318076170943,28.472318076170943 0 0,0 -0.09432481318559155,0.4809601902893743 l -7.3199850957471435 -1.5011181264346596" fill="#ff3f05" stroke="none" /><path d="M 120.5718875245553 104.21870165774334 l 5.187226775162189 1.0637508186522329 a26.295175863098677,26.295175863098677 0 0,0 -0.09474522659958017,0.44261815636318536 l -5.168147509838167 -1.1528827944315874" fill="#ff1f03" stroke="none" /><path d="M 120.49622156327973 104.57218783832717 l 6.119231976759016 1.365045646957931 a27.269637118978167,27.269637118978167 0 0,0 -0.10614308120878406,0.457261615824914 l -6.09482832961968 -1.4701759201314102" fill="#ff2d04" stroke="none" /><path d="M 120.32669344350535 105.2749913415812 l 8.508840718103052 2.2081339121699735 a29.790689719249766,29.790689719249766 0 0,0 -0.1330819956984791,0.49524761371162257 l -8.469570646062795 -2.354272459057144" fill="#ff5207" stroke="none" /><path d="M 120.23288151984713 105.62410040840565 l 8.662961569988335 2.408029012376782 a29.991412952786845,29.991412952786845 0 0,0 -0.14254113537513038,0.4962043918809924 l -8.620227797727106 -2.556790879762356" fill="#ff5507" stroke="none" /><path d="M 119.9155931802556 106.66101706037122 l 6.374680566833093 2.132090951335006 a27.72178281067784,27.72178281067784 0 0,0 -0.1552540876731452,0.45124105160569067 l -6.337035648216717 -2.241504706029997" fill="#ff3404" stroke="none" /><path d="M 119.67450827220406 107.3425965602758 l 9.343501130479172 3.4870278998796915 a30.972982349819183,30.972982349819183 0 0,0 -0.19071351408956996,0.49789280505675954 l -9.282093336796096 -3.647344271769595" fill="#ff6309" stroke="none" /><path d="M 119.54520255179757 107.68017299344265 l 4.870400998523295 1.9137955780690816 a26.23291691134624,26.23291691134624 0 0,0 -0.1687618331012341,0.41885302970006394 l -4.836736551164669 -1.997347975611959" fill="#ff1e03" stroke="none" /><path d="M 119.26925614724726 108.34839909993367 l 8.621715900156476 3.735355672825625 a30.396109145040917,30.396109145040917 0 0,0 -0.2121343230803349,0.4783068967204095 l -8.556140492344868 -3.8832109060387223" fill="#ff5b08" stroke="none" /><path d="M 119.12269723197855 108.67885076344098 l 8.833672748287396 4.0091691326501 a30.70088714283543,30.70088714283543 0 0,0 -0.2225454432702485,0.47934308623205213 l -8.763352688177317 -4.160632286160983" fill="#ff5f08" stroke="none" /><path d="M 118.97047184881838 109.00673069616215 l 3.7464791662398964 1.7787395684207332 a25.14729075365294,25.14729075365294 0 0,0 -0.18901990240128683,0.38943698479239275 l -3.7153060072238953 -1.8429655091784014" fill="#ff0e01" stroke="none" /><path d="M 118.64920377521936 109.65438752849418 l 13.992001508987334 7.243430148290619 a36.75574138340273,36.75574138340273 0 0,0 -0.2957043007171614,0.5593610978815575 l -13.865244700045281 -7.483206261258311" fill="#ffb310" stroke="none" /><line stroke="#e1ed5e" stroke-width="0.3" x1="174.80103733775053" x2="179.2010983576182" y1="140.37084112569926" y2="142.7455964860345" /><path d="M 175.68104954172406 140.8457921977663 a86.0,86.0 0 0,1 -30.038265399797805,32.042727171017184" fill="none" id="id29" stroke="none" /><text fill="#e1ed5e" style="font-size:6.75px; font-family:Arial;" text-anchor="middle"><textPath startOffset="22.206326154141568" xlink:href="#id29">May</textPath></text><path d="M 118.30583269289576 110.29060199501025 l 7.753900079078334 4.3588456729335165 a29.89508302585098,29.89508302585098 0 0,0 -0.2560271908122943,0.44640498777737225 l -7.67772089211366 -4.4916705065692035" fill="#ff5307" stroke="none" /><path d="M 118.12598468904814 110.60418214915192 l 5.2078316346277225 3.0467197342980907 a27.033573690110256,27.033573690110256 0 0,0 -0.2384349926490317,0.3996307624349302 l -5.154615766280464 -3.135912590619125" fill="#ff2a04" stroke="none" /><path d="M 117.75023020441432 111.22182372390056 l 12.621956577239793 7.979692101417767 a35.93282538139236,35.93282538139236 0 0,0 -0.3350224978475386,0.5199623565333009 l -12.482729216015203 -8.195776057872521" fill="#ffa80f" stroke="none" /><path d="M 117.14729908036423 112.12312394758627 l 11.965319190763038 8.459469152676126 a35.65371903927195,35.65371903927195 0 0,0 -0.35860885419318783,0.49807633365759857 l -11.817930544194247 -8.664179091784856" fill="#ffa40f" stroke="none" /><path d="M 116.71984013943494 112.70617746262583 l 11.00960264185471 8.366704692974883 a34.8279824179445,34.8279824179445 0 0,0 -0.36684344194753793,0.47419459971081235 l -10.863952382689105 -8.554977286798948" fill="#ff990e" stroke="none" /><path d="M 115.56566222782051 114.09645910891815 l 10.970670597397033 9.93517700758123 a35.800789017095084,35.800789017095084 0 0,0 -0.41759675553927367,0.4532188017769944 l -10.798027433862037 -10.122547064159559" fill="#ffa60f" stroke="none" /><path d="M 115.32070863581623 114.36230785411682 l 5.647119382033698 5.293858722964799 a28.740471399963386,28.740471399963386 0 0,0 -0.3414552059319574,0.3580144182997338 l -5.555157624722776 -5.39028025784704" fill="#ff4306" stroke="none" /><path d="M 114.81725581225074 114.88116024355365 l 6.473183060562285 6.5011008536709705 a30.17422537575527,30.17422537575527 0 0,0 -0.37121488394523294,0.36331189431670646 l -6.360318224241258 -6.611562850910249" fill="#ff5708" stroke="none" /><path d="M 114.0293411484842 115.62618273729858 l 13.85806325451665 15.435409725104357 a41.74362047830684,41.74362047830684 0 0,0 -0.538806073714773,0.4754337141453036 l -13.590314827895291 -15.67166658102195" fill="#fff417" stroke="none" /><path d="M 113.48314897796784 116.09983520530334 l 5.729739274848671 6.841714665109436 a29.924066994174623,29.924066994174623 0 0,0 -0.39774766540495304,0.32731925010508156 l -5.611121480899027 -6.9393290340716955" fill="#ff5407" stroke="none" /><path d="M 113.20401910651253 116.32954008644616 l 9.241077089958011 11.428530780297034 a35.69723856983833,35.69723856983833 0 0,0 -0.4811350432320915,0.3822427770488 l -9.042984554008568 -11.585907471350959" fill="#ffa50f" stroke="none" /><path d="M 112.63410532772338 116.77436683061366 l 5.325467960901078 7.070651289000459 a29.851820075737404,29.851820075737404 0 0,0 -0.4131136940176248,0.30561163468066554 l -5.2029692964648895 -7.161272872420893" fill="#ff5307" stroke="none" /><path d="M 112.34349029814194 116.9893568818739 l 10.286292304928057 14.15786675718473 a38.500085728264835,38.500085728264835 0 0,0 -0.5395011002525484,0.3849197103875563 l -10.041063876826623 -14.332830729416504" fill="#ffca12" stroke="none" /><path d="M 111.7513745106137 117.40417183066458 l 3.3941898103823687 5.026906650999121 a27.06550203583864,27.06550203583864 0 0,0 -0.388358121652533,0.257382586510187 l -3.307156989989872 -5.084587258600626" fill="#ff2a04" stroke="none" /><path d="M 111.45004920935366 117.60387380957326 l 6.59263262247208 10.13584052233306 a33.09123930740981,33.09123930740981 0 0,0 -0.48016680046608085,0.30646517036331544 l -6.417184019959069 -10.247820121520185" fill="#ff810b" stroke="none" /><line stroke="#e1ed5e" stroke-width="0.3" x1="143.8653032363475" x2="146.44561519142675" y1="172.8068346515853" y2="177.08958963109032" /><path d="M 144.38136562736335 173.6633856474863 a86.0,86.0 0 0,1 -40.68145358897372,12.25698825130547" fill="none" id="id30" stroke="none" /><text fill="#e1ed5e" style="font-size:6.75px; font-family:Arial;" text-anchor="middle"><textPath startOffset="21.466115282336833" xlink:href="#id30">June</textPath></text><path d="M 110.8373102113329 117.98757091392108 l 7.599513500450868 12.61353466266127 a35.72595878473427,35.72595878473427 0 0,0 -0.5294793434345295,0.31282572892912375 l -7.381266285987957 -12.742478963884142" fill="#ffa50f" stroke="none" /><path d="M 110.5260780823613 118.17145234162733 l 2.9860327631437213 5.15486885252439 a26.95726989058695,26.95726989058695 0 0,0 -0.4035262395497162,0.22913273020426445 l -2.896857756672806 -5.205504748523283" fill="#ff2903" stroke="none" /><path d="M 110.21172684928248 118.3499491758327 l 4.377274220361958 7.865737172353799 a30.001686001232976,30.001686001232976 0 0,0 -0.4534214639176689,0.24724153454673314 l -4.2412299445756405 -7.939919358660302" fill="#ff5507" stroke="none" /><path d="M 109.89434966115114 118.52300852407294 l 6.763749143387724 12.662275675335868 a35.35553996730463,35.35553996730463 0 0,0 -0.5392714808388457,0.2821213512306917 l -6.544786760022382 -12.776826445511277" fill="#ffa00e" stroke="none" /><path d="M 109.2508944713604 118.85261126421891 l 6.495228488072633 13.236775982799251 a35.7444983478951,35.7444983478951 0 0,0 -0.5546990095364583,0.26628923358079665 l -6.266416810535942 -13.34661949287961" fill="#ffa50f" stroke="none" /><path d="M 108.59647513512805 119.15986991738527 l 4.895631739559323 10.911410295375912 a32.9593513521184,32.9593513521184 0 0,0 -0.5196266575894004,0.22778905626736795 l -4.707084407312169 -10.994063904937734" fill="#ff7f0b" stroke="none" /><path d="M 107.93186726928326 119.44442032107085 l 4.413424202405285 10.81920212899752 a32.68475279577969,32.68475279577969 0 0,0 -0.5227675999468612,0.2080200167125484 l -4.226535526416558 -10.893568990116137" fill="#ff7b0b" stroke="none" /><path d="M 107.2578585660854 119.70592522655815 l 5.1048653393418935 13.860299667285638 a35.77049616633688,35.77049616633688 0 0,0 -0.579619054855881,0.2078307712131163 l -4.865526723856278 -13.946117979538714" fill="#ffa60f" stroke="none" /><path d="M 106.57524785965236 119.94407469862006 l 1.9115539272570117 5.798134934136159 a27.105113195614134,27.105113195614134 0 0,0 -0.44436723391161126,0.14227235564376048 l -1.81146534825446 -5.830180136439625" fill="#ff2b04" stroke="none" /><path d="M 105.18746579009965 120.34920634021253 l 7.7654165477874155 30.461899903072187 a52.43611044428747,52.43611044428747 0 0,0 -0.8765487777290151,0.21543436323998452 l -7.239914485315189 -30.5910555246262" fill="#8aff24" stroke="none" /><path d="M 103.7750983002368 120.6578951692458 l 1.6234211817667183 8.883600351907731 a30.030717111382906,30.030717111382906 0 0,0 -0.5093081326976634,0.0885497472176368 l -1.470264077597005 -8.910228677646375" fill="#ff5507" stroke="none" /><path d="M 103.06178313531738 120.77559828337769 l 1.8280318674591016 12.404031915084106 a33.53801053831393,33.53801053831393 0 0,0 -0.571857270583095,0.07925420692750011 l -1.614246005689176 -12.433660687504208" fill="#ff870c" stroke="none" /><path d="M 102.70371172650421 120.8252237178851 l 1.1699477827919986 9.011472664058472 a30.087101704588378,30.087101704588378 0 0,0 -0.5141636057924209,0.06225805222664195 l -1.0146567539481974 -9.030276245010464" fill="#ff5608" stroke="none" /><path d="M 102.34483914955558 120.86867818915974 l 1.474849143923829 13.125911927876771 a34.2085102844988,34.2085102844988 0 0,0 -0.5857269150946557,0.06071298964242638 l -1.2486896322235705 -13.149354285974956" fill="#ff900d" stroke="none" /><path d="M 101.98527174616119 120.90594882070398 l 0.9825655349983667 10.346928488446665 a31.393477001254,31.393477001254 0 0,0 -0.5384066251358026,0.04645598911364531 l -0.8043145921210225 -10.362308729838974" fill="#ff6909" stroke="none" /><path d="M 101.62511606390274 120.93702456842531 l 0.9433508835030093 12.153569251611547 a33.190125366177476,33.190125366177476 0 0,0 -0.5699807229266399,0.039309207788993855 l -0.734007399797439 -12.168006803916825" fill="#ff820c" stroke="none" /><path d="M 100.90346689309514 120.98055641714683 l 0.7571218772772348 17.582092251827916 a38.5983863319578,38.5983863319578 0 0,0 -0.6640386399969344,0.022870833407431304 l -0.4543628856056482 -17.592519883661442" fill="#ffcb12" stroke="none" /><line stroke="#e1ed5e" stroke-width="0.3" x1="102.19456741930631" x2="102.32365962044197" y1="184.97166512339345" y2="189.96999836594603" /><path d="M 102.22038585953345 185.97133177190398 a86.0,86.0 0 0,1 -42.740103519485714,-10.115201625700543" fill="none" id="id31" stroke="none" /><text fill="#e1ed5e" style="font-size:6.75px; font-family:Arial;" text-anchor="middle"><textPath startOffset="22.20632615414155" xlink:href="#id31">July</textPath></text><path d="M 100.18074693466247 120.99922214144158 l 0.10823805565977182 12.575123219665329 a33.575589030596504,33.575589030596504 0 0,0 -0.5779699806444459,0.0 l 0.10823805565976316 -12.575123219665329" fill="#ff870c" stroke="none" /><path d="M 99.45781275523022 120.99299961872073 l -0.3828155943590048 14.822273493046337 a35.82721616764079,35.82721616764079 0 0,0 -0.6163640027391337,-0.021228822505041243 l 0.6378999487727816 -14.813487872115202" fill="#ffa60f" stroke="none" /><path d="M 99.09653310690486 120.98055641714683 l -0.45639513184113534 10.598533145249176 a31.608355261175678,31.608355261175678 0 0,0 -0.5433806374814139,-0.028086572242976695 l 0.6387638377360382 -10.589106766243997" fill="#ff6c09" stroke="none" /><path d="M 98.73552117531835 120.96189622390904 l -0.9553053707073277 15.836573655514991 a36.86536080578862,36.86536080578862 0 0,0 -0.6330962830422975,-0.043662026344972314 l 1.2277644145285551 -15.817783284653734" fill="#ffb410" stroke="none" /><path d="M 98.37488393609728 120.93702456842531 l -0.9451772330630894 12.177098848333564 a33.213725736399496,33.213725736399496 0 0,0 -0.5696243834732513,-0.04914958866047691 l 1.1546459342778823 -12.159025007394424" fill="#ff820c" stroke="none" /><path d="M 98.01472825383883 120.90594882070398 l -0.9776313990286917 10.294969458527595 a31.34128421930191,31.34128421930191 0 0,0 -0.5366335326562135,-0.05562425982194676 l 1.1546975282904985 -10.276615830249886" fill="#ff6809" stroke="none" /><path d="M 97.65516085044442 120.86867818915974 l -1.3701231170226178 12.19386771757569 a33.27060093351317,33.27060093351317 0 0,0 -0.5685669663637487,-0.06884554155027325 l 1.5798175064377558 -12.168476647300068" fill="#ff830c" stroke="none" /><path d="M 97.2962882734958 120.8252237178851 l -0.41777617695141983 3.217903101032606 a24.24490944429323,24.24490944429323 0 0,0 -0.41340042291741824,-0.05729353170311898 l 0.4731051910556691 -3.2102350038368823" fill="#ff0000" stroke="none" /><path d="M 96.93821686468263 120.77559828337769 l -1.5265919544471445 10.358624300457796 a31.470510035018233,31.470510035018233 0 0,0 -0.5352446446884183,-0.08359420563824813 l 1.70467246274408 -10.330811787472442" fill="#ff6a09" stroke="none" /><path d="M 96.58105272829116 120.7198165907248 l -2.388909789793939 14.477489344717961 a35.673260977376344,35.673260977376344 0 0,0 -0.6050032660970748,-0.10518757278620303 l 2.6377620273630638 -14.434223193410752" fill="#ffa40f" stroke="none" /><path d="M 96.22490169976321 120.6578951692458 l -2.6497199573937693 14.4996587517378 a35.73978018049989,35.73978018049989 0 0,0 -0.6042275910555301,-0.11580165589957639 l 2.898915163020994 -14.451899897489756" fill="#ffa50f" stroke="none" /><path d="M 95.86986931433489 120.58985236759428 l -2.010034208927213 10.020580646338741 a31.220189529105426,31.220189529105426 0 0,0 -0.5259985538662072,-0.11022811115081094 l 2.182224224222807 -9.984496554461389" fill="#ff6609" stroke="none" /><path d="M 95.16358092515715 120.4354850818985 l -2.462230730928094 10.40374677864491 a31.691142464979645,31.691142464979645 0 0,0 -0.5297653078602885,-0.130203423546155 l 2.640949323531593 -10.359822096784725" fill="#ff6d0a" stroke="none" /><path d="M 94.81253420990036 120.34920634021253 l -4.353880732539818 17.079248517883077 a38.62546474192362,38.62546474192362 0 0,0 -0.6428556703881029,-0.16978402537376433 l 4.64722684573941 -17.00177314320573" fill="#ffcc13" stroke="none" /><path d="M 94.46302465271185 120.25689768951611 l -2.6969211152397246 9.86662422740668 a31.228570630673396,31.228570630673396 0 0,0 -0.5173069708121388,-0.14619611719117687 l 2.866359254156477 -9.818739316876982" fill="#ff6709" stroke="none" /><path d="M 93.42475214034765 119.94407469862007 l -7.017036015273774 21.28410874216487 a43.41098122322957,43.41098122322957 0 0,0 -0.7076615616954883,-0.2400772235755975 l 7.382367309906488 -21.16016853169115" fill="#f5ff19" stroke="none" /><path d="M 93.08242187328487 119.8279376855182 l -3.733159398514606 10.7003998462976 a32.33291824577252,32.33291824577252 0 0,0 -0.5239171250854572,-0.1878580409771771 l 3.9167960842297895 -10.634554264280466" fill="#ff760a" stroke="none" /><path d="M 92.7421414339146 119.70592522655815 l -3.6128390164813244 9.809275679061939 a31.453444174378404,31.453444174378404 0 0,0 -0.5064450540481588,-0.191494184660362 l 3.781154291289766 -9.745633244294943" fill="#ff6a09" stroke="none" /><path d="M 92.40401165467489 119.57807347666478 l -3.7699326097541923 9.716710226558824 a31.42242052063727,31.42242052063727 0 0,0 -0.5025775615538992,-0.19998598376108284 l 3.9366312473499496 -9.650377398391674" fill="#ff6909" stroke="none" /><path d="M 91.7346041902142 119.30500536409082 l -5.80190556321532 13.551174147910872 a35.740977883148624,35.740977883148624 0 0,0 -0.5634808973631126,-0.24701346622685139 l 6.034307135236176 -13.44929612838957" fill="#ffa50f" stroke="none" /><path d="M 91.07499286063937 119.00905698771935 l -6.287892798153579 13.392360439202305 a35.79503004304427,35.79503004304427 0 0,0 -0.5554831828370894,-0.26666568441923627 l 6.517488648990911 -13.282140478283505" fill="#ffa60f" stroke="none" /><path d="M 90.42595943632237 118.69057910512821 l -14.040959209328658 27.4109616591209 a51.79787906002339,51.79787906002339 0 0,0 -0.7900634234646583,-0.4133238424533051 l 14.510713535319812 -27.16520839772288" fill="#91ff24" stroke="none" /><path d="M 90.10565033884886 118.52300852407294 l -3.5763945211102732 6.695294634682046 a28.590623690832643,28.590623690832643 0 0,0 -0.43209579780563306,-0.23561308103415693 l 3.691113130784547 -6.632740901888123" fill="#ff4106" stroke="none" /><line stroke="#e1ed5e" stroke-width="0.3" x1="58.666819895761336" x2="56.23545636021788" y1="174.27360380694188" y2="178.64263932499728" /><path d="M 58.180547188652646 175.14741091055294 a86.0,86.0 0 0,1 -31.652253787137756,-30.449443065178592" fill="none" id="id32" stroke="none" /><text fill="#e1ed5e" style="font-size:6.75px; font-family:Arial;" text-anchor="middle"><textPath startOffset="22.20632615414155" xlink:href="#id32">August</textPath></text><path d="M 89.4739219176387 118.17145234162733 l -7.381523696047054 12.742923337808088 a35.72647232939913,35.72647232939913 0 0,0 -0.5294869544630708,-0.31283022565894114 l 7.599778521538507 -12.613974539855398" fill="#ffa50f" stroke="none" /><path d="M 88.8546689885994 117.79835938074946 l -16.314659946616615 26.053437139513985 a51.74003441696745,51.74003441696745 0 0,0 -0.750768097598499,-0.4791757212504735 l 16.76070984626204 -25.76874698943971" fill="#92ff23" stroke="none" /><path d="M 88.54995079064634 117.60387380957326 l -5.014656019300888 7.709780992912679 a30.19714618512657,30.19714618512657 0 0,0 -0.43329353197269893,-0.28716332621735813 l 5.146624250013548 -7.622319645604002" fill="#ff5808" stroke="none" /><path d="M 87.95078237400918 117.19931262002967 l -10.129117066060509 14.458519747229372 a38.6535493830272,38.6535493830272 0 0,0 -0.5416515840508772,-0.38645402347878083 l 10.376495977960273 -14.282021461906373" fill="#ffcc13" stroke="none" /><path d="M 87.36589467227662 116.77436683061367 l -9.264940259437592 12.301108985889087 a36.39988312597433,36.39988312597433 0 0,0 -0.49724194071603484,-0.38126391665696374 l 9.475310928647115 -12.139805727404758" fill="#ffae10" stroke="none" /><path d="M 87.07902340077011 116.55440617244103 l -5.87110219015491 7.522079278552783 a30.542091888054472,30.542091888054472 0 0,0 -0.41165286979294174,-0.32704193623630756 l 5.99971255266521 -7.419903428311345" fill="#ff5d08" stroke="none" /><path d="M 86.51685102203217 116.09983520530335 l -27.71024562351271 33.08799663684151 a64.15869824212774,64.15869824212774 0 0,0 -0.840584422108774,-0.716364280610693 l 28.27569552219854 -32.60610796600787" fill="#33ff57" stroke="none" /><path d="M 86.24171649860922 115.8653595955263 l -4.808119035180779 5.544480709641348 a28.33888785825569,28.33888785825569 0 0,0 -0.36578439352870745,-0.322762198266906 l 4.902845781616073 -5.460895369602153" fill="#ff3d05" stroke="none" /><path d="M 85.70375840098266 115.38237550388516 l -7.999416411718814 8.607159175699602 a32.75048305406659,32.75048305406659 0 0,0 -0.40963706212829,-0.38733741049854703 l 8.146389308237922 -8.468187128455124" fill="#ff7c0b" stroke="none" /><path d="M 85.18274418774928 114.88116024355367 l -6.808464608316571 6.8378284165921155 a30.64940867501496,30.64940867501496 0 0,0 -0.3706526033106817,-0.3754691302628133 l 6.925157836682787 -6.719618792348638" fill="#ff5e08" stroke="none" /><path d="M 84.67929136418377 114.36230785411682 l -9.435076541330552 8.844856797090687 a33.93260070913068,33.93260070913068 0 0,0 -0.395805353797535,-0.42956853904044817 l 9.585928303123817 -8.681137003248894" fill="#ff8c0c" stroke="none" /><path d="M 84.19399662182784 113.82643327865904 l -9.024339284530793 7.894116053009204 a32.98981933895183,32.98981933895183 0 0,0 -0.3702046683395609,-0.43063166549192966 l 9.158886462441133 -7.737607288355743" fill="#ff7f0b" stroke="none" /><path d="M 83.06392112726016 112.41649034213515 l -50.80823661821951 37.24947102640544 a84.0,84.0 0 0,0 -0.8448808304975701,-1.1734655781954473 l 51.44189724109269 -36.36937184275885" fill="#4dd2ff" stroke="none" /><path d="M 82.05923443525364 110.91462005526583 l -6.343312163292585 3.8590795863433778 a28.424964946362227,28.424964946362227 0 0,0 -0.25070700550826985,-0.42019936187187523 l 6.4088000444990865 -3.7493181305853915" fill="#ff3e05" stroke="none" /><line stroke="#e1ed5e" stroke-width="0.3" x1="26.63291911575756" x2="22.317208475507996" y1="142.92168965132927" y2="145.44649492493687" /><path d="M 25.769776987707644 143.4266507060508 a86.0,86.0 0 0,1 -11.730757126820373,-40.83630448921669" fill="none" id="id33" stroke="none" /><text fill="#e1ed5e" style="font-size:6.75px; font-family:Arial;" text-anchor="middle"><textPath startOffset="21.46611528233685" xlink:href="#id33">September</textPath></text><path d="M 81.87401531095188 110.60418214915194 l -6.410948865488958 3.750575247899205 a28.427454479568915,28.427454479568915 0 0,0 -0.24345814012474437,-0.4244897884551992 l 6.47455900176608 -3.639665613585699" fill="#ff3e05" stroke="none" /><path d="M 81.51974371655577 109.97397251340807 l -6.1978427316918845 3.3450354854494333 a28.04290543211407,28.04290543211407 0 0,0 -0.22560850165916138,-0.42676626235539833 l 6.254503741575932 -3.237854208007909" fill="#ff3905" stroke="none" /><path d="M 81.35079622478065 109.6543875284942 l -5.192729679002539 2.6881911558293385 a26.84729110011404,26.84729110011404 0 0,0 -0.20892476305790283,-0.41222837821065533 l 5.238233111846708 -2.5984085659159986" fill="#ff2703" stroke="none" /><path d="M 81.18737489456691 109.33194174019688 l -6.74867549685537 3.347658617933147 a28.533355108056313,28.533355108056313 0 0,0 -0.2144712943648792,-0.44187439069067946 l 6.805300047834968 -3.230995271277183" fill="#ff4006" stroke="none" /><path d="M 80.45479744820244 107.68017299344265 l -18.36574846177564 7.216713409169439 a40.732756244156576,40.732756244156576 0 0,0 -0.25080849477584083,-0.6547818364741331 l 18.487251236144992 -6.899508005862148" fill="#ffe715" stroke="none" /><path d="M 80.0844068197444 106.66101706037122 l -8.547378539143992 2.858776726125026 a30.012784489892866,30.012784489892866 0 0,0 -0.15965050457620752,-0.4913537296359185 l 8.595321294736449 -2.711224096511304" fill="#ff5507" stroke="none" /><path d="M 79.86692584326677 105.97154293290107 l -7.8623888507705955 2.3320130950710967 a29.200941623759118,29.200941623759118 0 0,0 -0.13878423732905734,-0.4831261369238948 l 7.901365724985756 -2.1963294826426063" fill="#ff4906" stroke="none" /><path d="M 79.18660465613746 102.79330883721812 l -31.181841722916538 4.1848296544774835 a52.4614057611864,52.4614057611864 0 0,0 -0.11241352771629022,-0.8960464205553246 l 31.249256759879675 -3.6474654796347505" fill="#8aff24" stroke="none" /><path d="M 79.07016306316243 101.71520430193888 l -5.883893746221163 0.4821862633772958 a26.903618315017518,26.903618315017518 0 0,0 -0.03385172286971327,-0.46187986323817004 l 5.891322027755212 -0.3808332636423651" fill="#ff2803" stroke="none" /><line stroke="#e1ed5e" stroke-width="0.3" x1="15.007084014347285" x2="10.007500721073583" y1="101.09737516637583" y2="101.16192664675087" /><path d="M 14.007167355692545 101.11028546245083 a86.0,86.0 0 0,1 10.666146001902534,-42.60595125391555" fill="none" id="id34" stroke="none" /><text fill="#e1ed5e" style="font-size:6.75px; font-family:Arial;" text-anchor="middle"><textPath startOffset="22.20632615414155" xlink:href="#id34">October</textPath></text><path d="M 79.01574976396665 99.18683210126434 l -13.24410508965273 -0.5132268718323709 a34.254045474787546,34.254045474787546 0 0,0 0.027903005784726816,-0.5889883511512456 l 13.233308475634505 0.7411263296066256" fill="#ff910d" stroke="none" /><path d="M 79.08570108090925 98.10471618934814 l -16.916381419906518 -1.532986784017645 a37.98570012756999,37.98570012756999 0 0,0 0.06461706626332062,-0.6506850390100366 l 16.88748722796097 1.823947353732112" fill="#ffc312" stroke="none" /><path d="M 79.12142395522702 97.74499172005258 l -9.322040701586628 -1.0068348973131949 a30.37625508145365,30.37625508145365 0 0,0 0.060621815596983854,-0.5193706949160557 l 9.303328532986056 1.1671493305541123" fill="#ff5a08" stroke="none" /><line stroke="#e1ed5e" stroke-width="0.3" x1="26.266209847984243" x2="21.928928074336255" y1="57.711370442889674" y2="55.22380399835377" /><path d="M 25.398753493254645 57.213857153982495 a86.0,86.0 0 0,1 29.58750427330803,-30.492523968695096" fill="none" id="id35" stroke="none" /><text fill="#e1ed5e" style="font-size:6.75px; font-family:Arial;" text-anchor="middle"><textPath startOffset="21.46611528233685" xlink:href="#id35">November</textPath></text><line stroke="#e1ed5e" stroke-width="0.3" x1="56.762969772571076" x2="54.21961505331055" y1="26.818313649435495" y2="22.513508569990535" /><path d="M 56.25429882871897 25.957352633546506 a86.0,86.0 0 0,1 42.265352541879196,-11.944610805530505" fill="none" id="id36" stroke="none" /><text fill="#e1ed5e" style="font-size:6.75px; font-family:Arial;" text-anchor="middle"><textPath startOffset="22.20632615414155" xlink:href="#id36">December</textPath></text></svg>