<?xml version="1.0" encoding="utf-8" ?>
<svg baseProfile="full" height="200mm" version="1.1" viewBox="0,0,200,200" width="200mm" xmlns="http://www.w3.org/2000/svg" xmlns:ev="http://www.w3.org/2001/xml-events" xmlns:xlink="http://www.w3.org/1999/xlink"><defs /><rect fill="#1a1a1a" height="200" width="200" x="0" y="0" /><text alignment-baseline="middle" fill="#e1ed5e" style="dominant-baseline: central; font-size:9.0px; font-family:Arial;" text-anchor="middle" x="100.0" y="100.0">2024</text><line stroke="#e1ed5e" stroke-width="0.3" x1="100.0" x2="100.0" y1="15.0" y2="10.0" /><path d="M 100.0 14.0 a86.0,86.0 0 0,1 42.35913384403234,11.155469271406648" fill="none" id="id109" stroke="none" /><text fill="#e1ed5e" style="font-size:6.75px; font-family:Arial;" text-anchor="middle"><textPath startOffset="22.145653131862478" xlink:href="#id109">January</textPath></text><line stroke="#e1ed5e" stroke-width="0.3" x1="143.13028292997686" x2="145.6673583964461" y1="26.7553504044142" y2="22.446841604673864" /><path d="M 143.63769802327073 25.89364864446614 a86.0,86.0 0 0,1 29.32050498858742,28.57503671076993" fill="none" id="id110" stroke="none" /><text fill="#e1ed5e" style="font-size:6.75px; font-family:Arial;" text-anchor="middle"><textPath startOffset="20.669276256404974" xlink:href="#id110">February</textPath></text><line stroke="#e1ed5e" stroke-width="0.3" x1="172.87174338648825" x2="177.1583165268699" y1="56.24261187166439" y2="53.66864786411523" /><path d="M 173.72905801456457 55.72781907015455 a86.0,86.0 0 0,1 12.242430191666344,42.057860355516425" fill="none" id="id111" stroke="none" /><text fill="#e1ed5e" style="font-size:6.75px; font-family:Arial;" text-anchor="middle"><textPath startOffset="22.145653131862474" xlink:href="#id111">March</textPath></text><line stroke="#e1ed5e" stroke-width="0.3" x1="184.99686870605535" x2="189.99668451229388" y1="99.2704041080226" y2="99.22748670261217" /><path d="M 185.99683186730306 99.26182062694052 a86.0,86.0 0 0,1 -10.086455211305974,41.156179273409016" fill="none" id="id112" stroke="none" /><text fill="#e1ed5e" style="font-size:6.75px; font-family:Arial;" text-anchor="middle"><textPath startOffset="21.40746469413373" xlink:href="#id112">April</textPath></text><line stroke="#e1ed5e" stroke-width="0.3" x1="174.33088141563837" x2="178.70328620479359" y1="141.23008692659167" y2="143.65538615756765" /><path d="M 175.20536237346943 141.71514677278685 a86.0,86.0 0 0,1 -30.301960400862466,31.631185727798858" fill="none" id="id113" stroke="none" /><text fill="#e1ed5e" style="font-size:6.75px; font-family:Arial;" text-anchor="middle"><textPath startOffset="22.145653131862474" xlink:href="#id113">May</textPath></text><line stroke="#e1ed5e" stroke-width="0.3" x1="143.1302829299769" x2="145.66735839644613" y1="173.24464959558577" y2="177.55315839532614" /><path d="M 143.63769802327073 174.10635135553383 a86.0,86.0 0 0,1 -40.68552437913181,11.842963189579606" fill="none" id="id114" stroke="none" /><text fill="#e1ed5e" style="font-size:6.75px; font-family:Arial;" text-anchor="middle"><textPath startOffset="21.407464694133747" xlink:href="#id114">June</textPath></text><line stroke="#e1ed5e" stroke-width="0.3" x1="101.45913802915013" x2="101.54496967792366" y1="184.9874750549273" y2="189.98673829345242" /><path d="M 101.47630435890484 185.9873277026323 a86.0,86.0 0 0,1 -42.54439059252881,-10.42667462771756" fill="none" id="id115" stroke="none" /><text fill="#e1ed5e" style="font-size:6.75px; font-family:Arial;" text-anchor="middle"><textPath startOffset="22.145653131862474" xlink:href="#id115">July</textPath></text><path d="M 96.05791012581884 120.62667999033965 l -6.303737522153672 32.983818421838635 a54.580788919157776,54.580788919157776 0 0,0 -0.9187857478769149,-0.1837828816709834 l 6.8690197555615455 -32.87074614350479" fill="#ff770a" stroke="none" /><path d="M 95.35216902796893 120.47920084513623 l -9.800475504243952 43.18270338078632 a65.28086710287255,65.28086710287255 0 0,0 -1.0907122496370236,-0.2574051210588558 l 10.540319907620864 -43.00810211608124" fill="#99ff23" stroke="none" /><path d="M 94.30408787586889 120.21278271476187 l -10.750133543068623 38.148431493553964 a60.634179651056094,60.634179651056094 0 0,0 -0.9994244854127612,-0.29091790193514167 l 11.403418040862991 -37.958269897316306" fill="#faff18" stroke="none" /><path d="M 92.93061703081489 119.77432235084164 l -13.533217249537511 37.85481724541129 a61.2011835373869,61.2011835373869 0 0,0 -0.986244973364718,-0.3621628151358381 l 14.181051374556347 -37.61692358126673" fill="#eeff19" stroke="none" /><path d="M 91.92203290615298 119.3841803445677 l -19.653994418301924 47.162431818480776 a72.0937811443574,72.0937811443574 0 0,0 -1.1382747202765833,-0.48586179208730673 l 20.460704213748937 -46.818095376734064" fill="#32ff4a" stroke="none" /><path d="M 90.93487009805054 118.94263497670748 l -16.841710268023352 35.19269700945221 a60.01498593554981,60.01498593554981 0 0,0 -0.9254875279004219,-0.4527023266675458 l 17.443358045185843 -34.898400932687444" fill="#fff617" stroke="none" /><line stroke="#e1ed5e" stroke-width="0.3" x1="58.13341422392154" x2="55.67067388415222" y1="173.97424548756322" y2="178.32567169271397" /><path d="M 57.64086615596768 174.84453072859336 a86.0,86.0 0 0,1 -31.369924170532247,-30.572349798747897" fill="none" id="id116" stroke="none" /><text fill="#e1ed5e" style="font-size:6.75px; font-family:Arial;" text-anchor="middle"><textPath startOffset="22.145653131862474" xlink:href="#id116">August</textPath></text><path d="M 89.65649057296885 118.27599006163327 l -22.241998152238352 39.29947954790503 a66.15701024802661,66.15701024802661 0 0,0 -0.983557947774792,-0.5678574459113763 l 22.913348567873545 -38.91187520471748" fill="#87ff25" stroke="none" /><path d="M 88.72937992617639 117.7192867562869 l -15.533640976657722 24.4214636844935 a49.943080183089265,49.943080183089265 0 0,0 -0.7194523487964152,-0.4663403203131582 l 15.950578957711146 -24.151209522476446" fill="#ff0000" stroke="none" /><path d="M 87.83215693770417 117.11559508785305 l -26.13482379994326 36.76190262827196 a66.10506069062129,66.10506069062129 0 0,0 -0.9192349062877946,-0.6654551827778113 l 26.76203971660501 -36.30784667412109" fill="#88ff25" stroke="none" /><path d="M 86.96720088162412 116.46651593811092 l -21.59189333333921 27.28065187516894 a55.79143320492067,55.79143320492067 0 0,0 -0.7458762806217782,-0.6008251338573227 l 22.05702038431625 -26.905978447518205" fill="#ff940d" stroke="none" /><path d="M 86.40962598614128 116.0094264158162 l -37.31668402226602 43.95895994676208 a78.66216320967048,78.66216320967048 0 0,0 -1.0219358233257578,-0.8827238244465 l 38.06579932535463 -43.31189198985086" fill="#41ffce" stroke="none" /><path d="M 82.576782715395 111.72311816256416 l -47.7252801206463 32.11169837674989 a78.52272190390089,78.52272190390089 0 0,0 -0.7428831348442502,-1.1248197502990258 l 48.26948769441128 -31.287698748111808" fill="#41ffcc" stroke="none" /><path d="M 81.99639281039703 110.81064883170644 l -39.75259295428669 23.870289884281718 a67.36873284605528,67.36873284605528 0 0,0 -0.5868339215613139,-0.9965722929604964 l 40.156500585977774 -23.18436642302766" fill="#70ff27" stroke="none" /><line stroke="#e1ed5e" stroke-width="0.3" x1="26.387840678322732" x2="22.057713659400548" y1="142.50000000000003" y2="145.00000000000006" /><path d="M 25.521815274538298 143.00000000000003 a86.0,86.0 0 0,1 -11.493303480769221,-40.785679425670985" fill="none" id="id117" stroke="none" /><text fill="#e1ed5e" style="font-size:6.75px; font-family:Arial;" text-anchor="middle"><textPath startOffset="21.40746469413373" xlink:href="#id117">September</textPath></text><path d="M 80.68587082218212 108.24405325689762 l -57.942387533453626 24.73215977069285 a84.0,84.0 0 0,0 -0.5546966218540579,-1.3310699622348747 l 58.35840999984417 -23.733857299016694" fill="#4dd2ff" stroke="none" /><line stroke="#e1ed5e" stroke-width="0.3" x1="15.003131293944662" x2="10.003315487706104" y1="100.72959589197737" y2="100.7725132973878" /><path d="M 14.003168132696942 100.73817937305945 a86.0,86.0 0 0,1 10.791469493833604,-42.45332614584628" fill="none" id="id118" stroke="none" /><text fill="#e1ed5e" style="font-size:6.75px; font-family:Arial;" text-anchor="middle"><textPath startOffset="22.145653131862435" xlink:href="#id118">October</textPath></text><line stroke="#e1ed5e" stroke-width="0.3" x1="26.387840678322718" x2="22.05771365940052" y1="57.49999999999999" y2="54.99999999999999" /><path d="M 25.521815274538284 56.99999999999999 a86.0,86.0 0 0,1 29.574782752854787,-30.34633250058573" fill="none" id="id119" stroke="none" /><text fill="#e1ed5e" style="font-size:6.75px; font-family:Arial;" text-anchor="middle"><textPath startOffset="21.40746469413373" xlink:href="#id119">November</textPath></text><line stroke="#e1ed5e" stroke-width="0.3" x1="56.869717070023135" x2="54.33264160355391" y1="26.7553504044142" y2="22.446841604673864" /><path d="M 56.362301976729285 25.89364864446614 a86.0,86.0 0 0,1 42.16139366436587,-11.88097634709845" fill="none" id="id120" stroke="none" /><text fill="#e1ed5e" style="font-size:6.75px; font-family:Arial;" text-anchor="middle"><textPath startOffset="22.145653131862474" xlink:href="#id120">December</textPath></text></svg>