<?xml version="1.0" encoding="utf-8" ?>
<svg baseProfile="full" height="200mm" version="1.1" viewBox="0,0,200,200" width="200mm" xmlns="http://www.w3.org/2000/svg" xmlns:ev="http://www.w3.org/2001/xml-events" xmlns:xlink="http://www.w3.org/1999/xlink"><defs /><rect fill="#1a1a1a" height="200" width="200" x="0" y="0" /><text alignment-baseline="middle" fill="#e1ed5e" style="dominant-baseline: central; font-size:9.0px; font-family:Arial;" text-anchor="middle" x="100.0" y="100.0">2015</text><line stroke="#e1ed5e" stroke-width="0.3" x1="100.0" x2="100.0" y1="15.0" y2="10.0" /><path d="M 100.0 14.0 a86.0,86.0 0 0,1 42.46469731375804,11.215312516191453" fill="none" id="id1" stroke="none" /><text fill="#e1ed5e" style="font-size:6.75px; font-family:Arial;" text-anchor="middle"><textPath startOffset="22.20632615414155" xlink:href="#id1">January</textPath></text><line stroke="#e1ed5e" stroke-width="0.3" x1="143.23703022742887" x2="145.7803849466894" y1="26.81831364943548" y2="22.513508569990506" /><path d="M 143.74570117128098 25.957352633546492 a86.0,86.0 0 0,1 28.547481713284135,27.462654790039103" fill="none" id="id2" stroke="none" /><text fill="#e1ed5e" style="font-size:6.75px; font-family:Arial;" text-anchor="middle"><textPath startOffset="19.985693538727396" xlink:href="#id2">February</textPath></text><line stroke="#e1ed5e" stroke-width="0.3" x1="172.23445277983987" x2="176.4835382374775" y1="55.19839476539836" y2="52.563006222186495" /><path d="M 173.08426987136738 54.67131705675599 a86.0,86.0 0 0,1 12.851231095245387,41.99856678651699" fill="none" id="id3" stroke="none" /><text fill="#e1ed5e" style="font-size:6.75px; font-family:Arial;" text-anchor="middle"><textPath startOffset="22.20632615414155" xlink:href="#id3">March</textPath></text><line stroke="#e1ed5e" stroke-width="0.3" x1="184.98032266829074" x2="189.97916517819016" y1="98.17113171792111" y2="98.06355123074" /><path d="M 185.9800911702706 98.14961562048488 a86.0,86.0 0 0,1 -9.607161424134198,41.387399972396054" fill="none" id="id4" stroke="none" /><text fill="#e1ed5e" style="font-size:6.75px; font-family:Arial;" text-anchor="middle"><textPath startOffset="21.466115282336823" xlink:href="#id4">April</textPath></text><line stroke="#e1ed5e" stroke-width="0.3" x1="174.80103733775053" x2="179.2010983576182" y1="140.37084112569926" y2="142.7455964860345" /><path d="M 175.68104954172406 140.8457921977663 a86.0,86.0 0 0,1 -30.038265399797805,32.042727171017184" fill="none" id="id5" stroke="none" /><text fill="#e1ed5e" style="font-size:6.75px; font-family:Arial;" text-anchor="middle"><textPath startOffset="22.206326154141568" xlink:href="#id5">May</textPath></text><path d="M 117.94076556474637 110.91462005526583 l 22.423277797304852 13.641645149869076 a47.246863994962354,47.246863994962354 0 0,0 -0.4286761074209001,0.6911623786065907 l -22.18513705021599 -14.02560385984094" fill="#d1ff1d" stroke="none" /><path d="M 117.55443506779139 111.5257021239791 l 25.422649561277364 16.691729748866052 a51.412578856859476,51.412578856859476 0 0,0 -0.49208422347881786,0.7355991472366328 l -25.131562232387825 -17.12686581030849" fill="#9eff22" stroke="none" /><path d="M 117.35343817320211 111.8261652097733 l 36.59734783066499 24.940664631711986 a65.28772539327582,65.28772539327582 0 0,0 -0.6408739279055925,0.9232266917841743 l -36.16261299559726 -25.56693258568318" fill="#34ff5f" stroke="none" /><path d="M 116.71984013943494 112.70617746262583 l 27.401380333820896 20.823572375028718 a55.41593832306139,55.41593832306139 0 0,0 -0.5836965606916745,0.7545064877821898 l -27.03887695591115 -21.292156856924162" fill="#71ff27" stroke="none" /><path d="M 116.0416608686014 113.55231037782055 l 33.51688201607821 28.315720653823185 a64.87666140700607,64.87666140700607 0 0,0 -0.7280319626000648,0.8468656486478023 l -33.02450754390737 -28.888463401632514" fill="#34ff5a" stroke="none" /><path d="M 115.80600337817218 113.82643327865902 l 32.550118974796455 28.473488044356017 a64.24638443483443,64.24638443483443 0 0,0 -0.7352880924287237,0.8261039665792208 l -32.05517203271939 -29.029566180676103" fill="#33ff52" stroke="none" /><path d="M 115.56566222782051 114.09645910891815 l 25.428370510054783 23.02825153566225 a55.30601107074902,55.30601107074902 0 0,0 -0.6451145748194448,0.7001444592905768 l -25.028209527239618 -23.46254724975416" fill="#72ff27" stroke="none" /><path d="M 115.32070863581623 114.36230785411682 l 18.964725226338185 17.77836969189859 a46.99483086716138,46.99483086716138 0 0,0 -0.5583286866862087,0.5854053958218164 l -18.65588998827301 -18.102182204302913" fill="#d4ff1c" stroke="none" /><path d="M 114.55890576462653 115.13401014063108 l 31.079614372635294 32.307318055810754 a65.82973599644586,65.82973599644586 0 0,0 -0.8233863179895176,0.7785631568417793 l -30.51889222025497 -32.83751584939845" fill="#35ff66" stroke="none" /><path d="M 114.29624159901734 115.38237550388516 l 29.487604978184606 31.727878221913002 a64.31486008073902,64.31486008073902 0 0,0 -0.8174126253107072,0.7466870525550474 l -28.937092803407037 -32.230758041054635" fill="#33ff53" stroke="none" /><path d="M 114.0293411484842 115.62618273729858 l 17.286245208594075 19.2537927200115 a46.87513879222311,46.87513879222311 0 0,0 -0.6050411822951015,0.5338784964434206 l -16.952261673392385 -19.54849435822721" fill="#d5ff1c" stroke="none" /><path d="M 113.20401910651253 116.32954008644616 l 18.84947273023424 23.311328018672594 a50.97866968699569,50.97866968699569 0 0,0 -0.6871014517210109,0.5458749486542975 l -18.44541378579588 -23.632336881332016" fill="#a3ff21" stroke="none" /><path d="M 112.92097659922987 116.55440617244103 l 16.09783745536638 20.62461282918453 a47.16323804679306,47.16323804679306 0 0,0 -0.64427514604036,0.49400270868214086 l -15.740433580832528 -20.898654879694046" fill="#d2ff1c" stroke="none" /><path d="M 112.63410532772338 116.77436683061366 l 15.686074639076423 20.826482232253788 a47.07288437731927,47.07288437731927 0 0,0 -0.6514327469427686,0.4819143726307998 l -15.325256921715091 -21.093406553624355" fill="#d3ff1c" stroke="none" /><path d="M 112.04921762599082 117.19931262002967 l 14.905244620411555 21.276067032891113 a46.97763163920806,46.97763163920806 0 0,0 -0.6662840076409684,0.4582762159574068 l -14.536803728147703 -21.529484038213617" fill="#d4ff1c" stroke="none" /><path d="M 111.1453310114006 117.79835938074945 l 13.392952683823754 21.387663120299962 a46.234962162416274,46.234962162416274 0 0,0 -0.6781585731603283,0.4165803846134623 l -13.022814910731118 -21.615031971741804" fill="#ddff1b" stroke="none" /><line stroke="#e1ed5e" stroke-width="0.3" x1="143.8653032363475" x2="146.44561519142675" y1="172.8068346515853" y2="177.08958963109032" /><path d="M 144.38136562736335 173.6633856474863 a86.0,86.0 0 0,1 -40.68145358897372,12.25698825130547" fill="none" id="id6" stroke="none" /><text fill="#e1ed5e" style="font-size:6.75px; font-family:Arial;" text-anchor="middle"><textPath startOffset="21.466115282336833" xlink:href="#id6">June</textPath></text><path d="M 110.8373102113329 117.98757091392108 l 13.439460385244336 22.30657257292655 a47.042317012850276,47.042317012850276 0 0,0 -0.6971943083651024,0.4119146864253784 l -13.05349820585085 -22.53460583164568" fill="#d3ff1c" stroke="none" /><path d="M 110.21172684928248 118.3499491758327 l 23.133849185109398 41.5703399683045 a68.57381783291942,68.57381783291942 0 0,0 -1.036369784916356,0.5651114390718696 l -22.414856588324394 -41.96239205913614" fill="#39ff87" stroke="none" /><path d="M 107.59598834532513 119.57807347666477 l 5.584332835854419 14.3931867201713 a36.438542586116,36.438542586116 0 0,0 -0.5867122076409871,0.2218443539618563 l -5.335750407453157 -14.487179324239786" fill="#ff9f0e" stroke="none" /><path d="M 106.2309692047433 120.05430185196036 l 7.59295501401365 24.43783732448388 a46.59024929426778,46.59024929426778 0 0,0 -0.7679072013244644,0.23136414052023546 l -7.171172838248939 -24.56491683410984" fill="#d9ff1c" stroke="none" /><path d="M 104.48393922423573 120.51570834832081 l 9.403016409560609 43.02233652283745 a65.03791727003832,65.03791727003832 0 0,0 -1.0957604981423463,0.22962726626549243 l -8.661064449988885 -43.17781976982948" fill="#34ff5c" stroke="none" /><path d="M 104.13013068566511 120.58985236759428 l 3.4867935864279223 17.38263765599567 a38.72889791820105,38.72889791820105 0 0,0 -0.6547625244241844,0.12548679615383712 l -3.1870634474320334 -17.440081650497973" fill="#ffbf11" stroke="none" /><path d="M 103.7750983002368 120.6578951692458 l 2.3629249871433786 12.930274338588053 a34.144405995175866,34.144405995175866 0 0,0 -0.579074538745609,0.10067953117986515 l -2.1400014769257196 -12.969032448288925" fill="#ff7f0b" stroke="none" /><line stroke="#e1ed5e" stroke-width="0.3" x1="102.19456741930631" x2="102.32365962044197" y1="184.97166512339345" y2="189.96999836594603" /><path d="M 102.22038585953345 185.97133177190398 a86.0,86.0 0 0,1 -42.740103519485714,-10.115201625700543" fill="none" id="id7" stroke="none" /><text fill="#e1ed5e" style="font-size:6.75px; font-family:Arial;" text-anchor="middle"><textPath startOffset="22.20632615414155" xlink:href="#id7">July</textPath></text><path d="M 98.37488393609728 120.93702456842531 l -1.4623267689971118 18.83974453863457 a39.89641166624861,39.89641166624861 0 0,0 -0.6842342553962897,-0.059038610663187226 l 1.786405342134943 -18.811781675692718" fill="#ffcf13" stroke="none" /><path d="M 96.58105272829116 120.7198165907248 l -2.1748766948876974 13.18038643017492 a34.35861800811389,34.35861800811389 0 0,0 -0.5827074829708909,-0.10131116510076989 l 2.4014331493306385 -13.140996686553144" fill="#ff820c" stroke="none" /><path d="M 93.08242187328487 119.8279376855182 l -4.634190922094968 13.283037378534996 a35.06821977017651,35.06821977017651 0 0,0 -0.5682394872061415,-0.20375046311954295 l 4.862149969930836 -13.201299374375495" fill="#ff8c0c" stroke="none" /><path d="M 91.07499286063937 119.00905698771935 l -8.358765256891097 17.80303843281789 a40.66766722466598,40.66766722466598 0 0,0 -0.6310989319285903,-0.3029658391446621 l 8.663976856819929 -17.656518317173667" fill="#ffd914" stroke="none" /><path d="M 90.42595943632237 118.69057910512821 l -8.765084376883953 17.111323251626565 a40.225610199823336,40.225610199823336 0 0,0 -0.613553757067924,-0.3209823273565583 l 9.058329036478373 -16.957911505325292" fill="#ffd313" stroke="none" /><line stroke="#e1ed5e" stroke-width="0.3" x1="58.666819895761336" x2="56.23545636021788" y1="174.27360380694188" y2="178.64263932499728" /><path d="M 58.180547188652646 175.14741091055294 a86.0,86.0 0 0,1 -31.652253787137756,-30.449443065178592" fill="none" id="id8" stroke="none" /><text fill="#e1ed5e" style="font-size:6.75px; font-family:Arial;" text-anchor="middle"><textPath startOffset="22.20632615414155" xlink:href="#id8">August</textPath></text><path d="M 89.1626897886671 117.98757091392108 l -10.233114921239913 16.984738530749116 a40.82922045742637,40.82922045742637 0 0,0 -0.5988690072112676,-0.3678742571881806 l 10.523963128383489 -16.806075806732558" fill="#ffdb14" stroke="none" /><path d="M 88.54995079064634 117.60387380957326 l -9.80973216142265 15.081968987026263 a38.9915711822084,38.9915711822084 0 0,0 -0.5594831872895796,-0.3707949488497971 l 10.067890047452192 -14.910876017085148" fill="#ffc312" stroke="none" /><path d="M 86.79598089348748 116.32954008644616 l -9.467300728386583 11.708303775354207 a36.05703026422152,36.05703026422152 0 0,0 -0.4792663915577342,-0.3944036119621924 l 9.667437248489005 -11.543605044534832" fill="#ff9a0e" stroke="none" /><path d="M 86.51685102203217 116.09983520530335 l -4.28668286891371 5.11860307111355 a27.676507127102564,27.676507127102564 0 0,0 -0.362607742782241,-0.30902218500600964 l 4.374156088273008 -5.044056495884589" fill="#ff2003" stroke="none" /><path d="M 86.24171649860922 115.8653595955263 l -19.14294088483538 22.074675290933975 a50.218889009003625,50.218889009003625 0 0,0 -0.6482006616393212,-0.5719617188980773 l 19.520083899381287 -21.74189043026361" fill="#acff20" stroke="none" /><path d="M 85.97065885151581 115.62618273729859 l -9.69666671025344 10.800356506654015 a35.51458046105918,35.51458046105918 0 0,0 -0.45137416788344464,-0.41231960038329923 l 9.88114042760374 -10.63184413968414" fill="#ff920d" stroke="none" /><path d="M 85.70375840098266 115.38237550388516 l -11.361822619860696 12.22501877411239 a37.68958050019768,37.68958050019768 0 0,0 -0.4714143911545028,-0.4457517310392895 l 11.570572845406016 -12.02763240632717" fill="#ffb110" stroke="none" /><path d="M 84.43433777217949 114.09645910891817 l -22.15213035151365 20.061247321519236 a50.88595862952391,50.88595862952391 0 0,0 -0.5823804682746117,-0.6543106298794873 l 22.4941696694366 -19.676962521898883" fill="#a5ff21" stroke="none" /><path d="M 84.19399662182784 113.82643327865904 l -7.00364900873412 6.1265003815029555 a30.305111840386353,30.305111840386353 0 0,0 -0.3400774573086822,-0.395586912758141 l 7.108068975613581 -6.0050363695832845" fill="#ff4706" stroke="none" /><path d="M 83.95833913139862 113.55231037782056 l -16.494697490360895 13.93504461967338 a42.59306633738724,42.59306633738724 0 0,0 -0.46832901876679406,-0.5641324727024317 l 16.732122509021227 -13.649050889857188" fill="#fff216" stroke="none" /><path d="M 82.05923443525364 110.91462005526583 l -8.12407357196913 4.942441057995229 a30.509379318048275,30.509379318048275 0 0,0 -0.269091453346637,-0.45101275392044254 l 8.207945901014 -4.801866210188675" fill="#ff4a06" stroke="none" /><line stroke="#e1ed5e" stroke-width="0.3" x1="26.63291911575756" x2="22.317208475507996" y1="142.92168965132927" y2="145.44649492493687" /><path d="M 25.769776987707644 143.4266507060508 a86.0,86.0 0 0,1 -11.730757126820373,-40.83630448921669" fill="none" id="id9" stroke="none" /><text fill="#e1ed5e" style="font-size:6.75px; font-family:Arial;" text-anchor="middle"><textPath startOffset="21.46611528233685" xlink:href="#id9">September</textPath></text><path d="M 81.87401531095188 110.60418214915194 l -3.9833341582857114 2.3303562096089743 a25.614922651597624,25.614922651597624 0 0,0 -0.21937108131433758,-0.38249197111502514 l 4.022857235752427 -2.2614443926356422" fill="#ff0000" stroke="none" /><path d="M 81.69416730710424 110.29060199501025 l -16.58526137451519 9.32338488238167 a40.02620299812889,40.02620299812889 0 0,0 -0.33245304966457684,-0.6034988526571938 l 16.743290833631285 -9.036515511326654" fill="#ffd013" stroke="none" /><path d="M 81.35079622478065 109.6543875284942 l -26.280433108418016 13.604950039876572 a50.59317201574666,50.59317201574666 0 0,0 -0.3937144509783593,-0.7768359634799566 l 26.51072622918264 -13.15055986469393" fill="#a8ff21" stroke="none" /><path d="M 81.18737489456691 109.33194174019688 l -19.141238860596424 9.494949528903941 a42.366822217513764,42.366822217513764 0 0,0 -0.31845071021989135,-0.6561027850376582 l 19.301842827431035 -9.164057787901" fill="#ffef16" stroke="none" /><path d="M 81.02952815118164 109.00673069616217 l -19.95659612953881 9.474919147149423 a43.091623342854234,43.091623342854234 0 0,0 -0.3123637559218978,-0.6728037410714842 l 20.11673450230053 -9.12999533879911" fill="#fff917" stroke="none" /><path d="M 80.87730276802145 108.67885076344099 l -18.48938916589698 8.39142341330684 a41.304519167647946,41.304519167647946 0 0,0 -0.2882640726145972,-0.6499593842532664 l 18.63109432324286 -8.071915692560879" fill="#ffe215" stroke="none" /><path d="M 80.32549172779594 107.34259656027581 l -12.246864904493917 4.570573601015634 a34.07194870825409,34.07194870825409 0 0,0 -0.20033614503541733,-0.5512390301868528 l 12.323725310534558 -4.359086773822664" fill="#ff7e0b" stroke="none" /><path d="M 80.20201598880116 107.00284435728193 l -14.451300231416926 5.111641984543508 a36.328697340501535,36.328697340501535 0 0,0 -0.2034565670062539,-0.5913400196281281 l 14.537147629366409 -4.862129261826083" fill="#ff9e0e" stroke="none" /><path d="M 80.0844068197444 106.66101706037122 l -23.70565912735538 7.9286516070837125 a45.99643556527367,45.99643556527367 0 0,0 -0.24467420372727877,-0.7530297687829131 l 23.838625582098906 -7.519422938322997" fill="#e0ff1b" stroke="none" /><path d="M 79.97269907076064 106.31721596034903 l -20.055774141818674 6.326197272088638 a42.02985611821974,42.02985611821974 0 0,0 -0.21169683489176502,-0.6918375051231835 l 20.161697749216568 -5.980032794413407" fill="#ffeb16" stroke="none" /><path d="M 79.67330655649465 105.27499134158121 l -21.21931125385575 5.506635078130207 a42.922185109420624,42.922185109420624 0 0,0 -0.17943248658763075,-0.7167435900050297 l 21.31095505473844 -5.1405636487277855" fill="#fff717" stroke="none" /><path d="M 79.35854240842038 103.8639653848113 l -61.92437277473888 11.591896154433886 a84.0,84.0 0 0,0 -0.25381423064324515,-1.4235249970671453 l 62.11473344772131 -10.524252406633527" fill="#4dd2ff" stroke="none" /><path d="M 79.29508885075956 103.50808413554451 l -21.510772124447097 3.6446231470959125 a42.81734620145717,42.81734620145717 0 0,0 -0.11686738891298934,-0.7277333423198307 l 21.570321267721376 -3.273810575082868" fill="#fff517" stroke="none" /><path d="M 79.1416061653843 102.43462659150553 l -18.451040689790275 2.153636308744174 a39.576303504374536,39.576303504374536 0 0,0 -0.07315528653027022,-0.6773270974131618 l 18.4853782778216 -1.83571288944623" fill="#ffca12" stroke="none" /><path d="M 79.10278846688536 102.07522291339032 l -26.583060953480878 2.639863079880144 a47.71381677591194,47.71381677591194 0 0,0 -0.07412773978456107,-0.8179934315577116 l 26.624563289542515 -2.1818882597738662" fill="#cbff1d" stroke="none" /><path d="M 79.04373962182676 101.35467743843564 l -25.432974896660156 1.6440661006813118 a46.48605825618303,46.48605825618303 0 0,0 -0.04474537477201176,-0.7989587247969048 l 25.4575066223197 -1.2060356595489694" fill="#daff1c" stroke="none" /><path d="M 79.0095281055655 100.63252640178507 l -26.320677592446902 0.7931466988367117 a47.33262521305865,47.33262521305865 0 0,0 -0.017530961517200277,-0.8145948951137295 l 26.33043061664911 -0.33996198793285337" fill="#cfff1d" stroke="none" /><line stroke="#e1ed5e" stroke-width="0.3" x1="15.007084014347285" x2="10.007500721073583" y1="101.09737516637583" y2="101.16192664675087" /><path d="M 14.007167355692545 101.11028546245083 a86.0,86.0 0 0,1 10.666146001902534,-42.60595125391555" fill="none" id="id10" stroke="none" /><text fill="#e1ed5e" style="font-size:6.75px; font-family:Arial;" text-anchor="middle"><textPath startOffset="22.20632615414155" xlink:href="#id10">October</textPath></text><path d="M 79.00175016825051 100.2711162175752 l -42.77743381655649 0.5523153666065397 a63.780999242585025,63.780999242585025 0 0,0 -0.004724965399995037,-1.0979155569949068 l 42.78060307924599 0.18410966859204256" fill="#32ff4c" stroke="none" /><line stroke="#e1ed5e" stroke-width="0.3" x1="26.266209847984243" x2="21.928928074336255" y1="57.711370442889674" y2="55.22380399835377" /><path d="M 25.398753493254645 57.213857153982495 a86.0,86.0 0 0,1 29.58750427330803,-30.492523968695096" fill="none" id="id11" stroke="none" /><text fill="#e1ed5e" style="font-size:6.75px; font-family:Arial;" text-anchor="middle"><textPath startOffset="21.46611528233685" xlink:href="#id11">November</textPath></text><line stroke="#e1ed5e" stroke-width="0.3" x1="56.762969772571076" x2="54.21961505331055" y1="26.818313649435495" y2="22.513508569990535" /><path d="M 56.25429882871897 25.957352633546506 a86.0,86.0 0 0,1 42.265352541879196,-11.944610805530505" fill="none" id="id12" stroke="none" /><text fill="#e1ed5e" style="font-size:6.75px; font-family:Arial;" text-anchor="middle"><textPath startOffset="22.20632615414155" xlink:href="#id12">December</textPath></text></svg>