<?xml version="1.0" encoding="utf-8" ?>
<svg baseProfile="full" height="200mm" version="1.1" viewBox="0,0,200,200" width="200mm" xmlns="http://www.w3.org/2000/svg" xmlns:ev="http://www.w3.org/2001/xml-events" xmlns:xlink="http://www.w3.org/1999/xlink"><defs /><rect fill="#1a1a1a" height="200" width="200" x="0" y="0" /><text alignment-baseline="middle" fill="#e1ed5e" style="dominant-baseline: central; font-size:9.0px; font-family:Arial;" text-anchor="middle" x="100.0" y="100.0">2024</text><line stroke="#e1ed5e" stroke-width="0.3" x1="100.0" x2="100.0" y1="15.0" y2="10.0" /><path d="M 100.0 14.0 a86.0,86.0 0 0,1 42.35913384403234,11.155469271406648" fill="none" id="id109" stroke="none" /><text fill="#e1ed5e" style="font-size:6.75px; font-family:Arial;" text-anchor="middle"><textPath startOffset="22.145653131862478" xlink:href="#id109">January</textPath></text><line stroke="#e1ed5e" stroke-width="0.3" x1="143.13028292997686" x2="145.6673583964461" y1="26.7553504044142" y2="22.446841604673864" /><path d="M 143.63769802327073 25.89364864446614 a86.0,86.0 0 0,1 29.32050498858742,28.57503671076993" fill="none" id="id110" stroke="none" /><text fill="#e1ed5e" style="font-size:6.75px; font-family:Arial;" text-anchor="middle"><textPath startOffset="20.669276256404974" xlink:href="#id110">February</textPath></text><line stroke="#e1ed5e" stroke-width="0.3" x1="172.87174338648825" x2="177.1583165268699" y1="56.24261187166439" y2="53.66864786411523" /><path d="M 173.72905801456457 55.72781907015455 a86.0,86.0 0 0,1 12.242430191666344,42.057860355516425" fill="none" id="id111" stroke="none" /><text fill="#e1ed5e" style="font-size:6.75px; font-family:Arial;" text-anchor="middle"><textPath startOffset="22.145653131862474" xlink:href="#id111">March</textPath></text><line stroke="#e1ed5e" stroke-width="0.3" x1="184.99686870605535" x2="189.99668451229388" y1="99.2704041080226" y2="99.22748670261217" /><path d="M 185.99683186730306 99.26182062694052 a86.0,86.0 0 0,1 -10.086455211305974,41.156179273409016" fill="none" id="id112" stroke="none" /><text fill="#e1ed5e" style="font-size:6.75px; font-family:Arial;" text-anchor="middle"><textPath startOffset="21.40746469413373" xlink:href="#id112">April</textPath></text><line stroke="#e1ed5e" stroke-width="0.3" x1="174.33088141563837" x2="178.70328620479359" y1="141.23008692659167" y2="143.65538615756765" /><path d="M 175.20536237346943 141.71514677278685 a86.0,86.0 0 0,1 -30.301960400862466,31.631185727798858" fill="none" id="id113" stroke="none" /><text fill="#e1ed5e" style="font-size:6.75px; font-family:Arial;" text-anchor="middle"><textPath startOffset="22.145653131862474" xlink:href="#id113">May</textPath></text><line stroke="#e1ed5e" stroke-width="0.3" x1="143.1302829299769" x2="145.66735839644613" y1="173.24464959558577" y2="177.55315839532614" /><path d="M 143.63769802327073 174.10635135553383 a86.0,86.0 0 0,1 -40.68552437913181,11.842963189579606" fill="none" id="id114" stroke="none" /><text fill="#e1ed5e" style="font-size:6.75px; font-family:Arial;" text-anchor="middle"><textPath startOffset="21.407464694133747" xlink:href="#id114">June</textPath></text><line stroke="#e1ed5e" stroke-width="0.3" x1="101.45913802915013" x2="101.54496967792366" y1="184.9874750549273" y2="189.98673829345242" /><path d="M 101.47630435890484 185.9873277026323 a86.0,86.0 0 0,1 -42.54439059252881,-10.42667462771756" fill="none" id="id115" stroke="none" /><text fill="#e1ed5e" style="font-size:6.75px; font-family:Arial;" text-anchor="middle"><textPath startOffset="22.145653131862474" xlink:href="#id115">July</textPath></text><path d="M 96.05791012581884 120.62667999033965 l -6.170191707222053 32.285050287026436 a53.869373856824495,53.869373856824495 0 0,0 -0.9068101419349612,-0.18138742508618746 l 6.723498334687973 -32.17437346527739" fill="#ff720a" stroke="none" /><path d="M 95.35216902796893 120.47920084513623 l -9.59285066527628 42.267870030941005 a64.34276895675693,64.34276895675693 0 0,0 -1.0750385126794906,-0.25370616181425115 l 10.317021331695658 -42.096967725480525" fill="#a4ff21" stroke="none" /><path d="M 94.30408787586889 120.21278271476187 l -10.522390027481647 37.340250100489065 a59.79452241563902,59.79452241563902 0 0,0 -0.9855845356474775,-0.28688929426405657 l 11.161834575510731 -37.15411711192249" fill="#fffb17" stroke="none" /><path d="M 92.93061703081489 119.77432235084164 l -13.24651360429775 37.052856123083544 a60.349514222500574,60.349514222500574 0 0,0 -0.9725204907284876,-0.35712299500792144 l 13.880623246680356 -36.8200022790669" fill="#f7ff18" stroke="none" /><path d="M 91.92203290615298 119.3841803445677 l -19.23762100617469 46.163287204793875 a71.01135018702755,71.01135018702755 0 0,0 -1.121184427943237,-0.4785669625418013 l 20.02724050928836 -45.82624559259267" fill="#30ff37" stroke="none" /><path d="M 90.93487009805054 118.94263497670748 l -16.484915602211032 34.44713338386471 a59.18844643053429,59.18844643053429 0 0,0 -0.9127415113633135,-0.4464676112682121 l 17.073817362836415 -34.15907202249928" fill="#ffee16" stroke="none" /><line stroke="#e1ed5e" stroke-width="0.3" x1="58.13341422392154" x2="55.67067388415222" y1="173.97424548756322" y2="178.32567169271397" /><path d="M 57.64086615596768 174.84453072859336 a86.0,86.0 0 0,1 -31.369924170532247,-30.572349798747897" fill="none" id="id116" stroke="none" /><text fill="#e1ed5e" style="font-size:6.75px; font-family:Arial;" text-anchor="middle"><textPath startOffset="22.145653131862474" xlink:href="#id116">August</textPath></text><path d="M 89.65649057296885 118.27599006163327 l -21.7707974148172 38.46691299446447 a65.20035085155672,65.20035085155672 0 0,0 -0.9693352682857433,-0.5596459780797762 l 22.42792515096334 -38.087520119108525" fill="#94ff23" stroke="none" /><path d="M 88.72937992617639 117.7192867562869 l -15.204557994412259 23.904090577173132 a49.329915815744016,49.329915815744016 0 0,0 -0.7106194425626067,-0.46061493720854907 l 15.612663069231875 -23.639561798260686" fill="#ff0000" stroke="none" /><path d="M 87.83215693770417 117.11559508785305 l -25.581152849940693 35.98309509898066 a65.14950185488297,65.14950185488297 0 0,0 -0.9059472241096734,-0.6558359255976812 l 26.19508108442432 -35.538658402009915" fill="#95ff23" stroke="none" /><path d="M 86.96720088162412 116.46651593811092 l -21.134465183613177 26.702706350988787 a55.054370425313905,55.054370425313905 0 0,0 -0.7360224802610921,-0.5928876098006827 l 21.589738434229528 -26.335970447394693" fill="#ff8f0d" stroke="none" /><path d="M 86.40962598614128 116.0094264158162 l -36.52612334920732 43.02768146173547 a77.4405798950904,77.4405798950904 0 0,0 -1.0060656806878174,-0.8690155732196433 l 37.259368509657996 -42.394321756051106" fill="#3effb9" stroke="none" /><path d="M 82.576782715395 111.72311816256416 l -46.71421146428925 31.431406262192393 a77.3040926785018,77.3040926785018 0 0,0 -0.7313539993631185,-1.1073631697350197 l 47.246889902573095 -30.624863214118314" fill="#3effb7" stroke="none" /><path d="M 81.99639281039703 110.81064883170644 l -38.91042711171027 23.364593493204623 a66.3864028880723,66.3864028880723 0 0,0 -0.5782770656259707,-0.9820408808748939 l 39.305777887466014 -22.69320144403617" fill="#7dff26" stroke="none" /><line stroke="#e1ed5e" stroke-width="0.3" x1="26.387840678322732" x2="22.057713659400548" y1="142.50000000000003" y2="145.00000000000006" /><path d="M 25.521815274538298 143.00000000000003 a86.0,86.0 0 0,1 -11.493303480769221,-40.785679425670985" fill="none" id="id117" stroke="none" /><text fill="#e1ed5e" style="font-size:6.75px; font-family:Arial;" text-anchor="middle"><textPath startOffset="21.40746469413373" xlink:href="#id117">September</textPath></text><path d="M 80.68587082218212 108.24405325689762 l -56.71486761609594 24.208204510819066 a82.66533365148467,82.66533365148467 0 0,0 -0.545883110963299,-1.309920744543036 l 57.12207657159572 -23.23105125683475" fill="#4ae8ff" stroke="none" /><line stroke="#e1ed5e" stroke-width="0.3" x1="15.003131293944662" x2="10.003315487706104" y1="100.72959589197737" y2="100.7725132973878" /><path d="M 14.003168132696942 100.73817937305945 a86.0,86.0 0 0,1 10.791469493833604,-42.45332614584628" fill="none" id="id118" stroke="none" /><text fill="#e1ed5e" style="font-size:6.75px; font-family:Arial;" text-anchor="middle"><textPath startOffset="22.145653131862435" xlink:href="#id118">October</textPath></text><path d="M 79.94057633289273 93.78553927170692 l -36.226247464290815 -11.222984066557034 a58.92487807102654,58.92487807102654 0 0,0 0.3076307502432124,-0.9636489435975985 l 36.02825199827035 11.843202043846023" fill="#ffe815" stroke="none" /><path d="M 80.9802524753101 91.09779779509293 l -57.05924257406971 -26.706606614721213 a84.0,84.0 0 0,0 0.6224829681603801,-1.3007499917396512 l 56.59238034794942 27.68216910852595" fill="#4dd2ff" stroke="none" /><line stroke="#e1ed5e" stroke-width="0.3" x1="26.387840678322718" x2="22.05771365940052" y1="57.49999999999999" y2="54.99999999999999" /><path d="M 25.521815274538284 56.99999999999999 a86.0,86.0 0 0,1 29.574782752854787,-30.34633250058573" fill="none" id="id119" stroke="none" /><text fill="#e1ed5e" style="font-size:6.75px; font-family:Arial;" text-anchor="middle"><textPath startOffset="21.40746469413373" xlink:href="#id119">November</textPath></text><line stroke="#e1ed5e" stroke-width="0.3" x1="56.869717070023135" x2="54.33264160355391" y1="26.7553504044142" y2="22.446841604673864" /><path d="M 56.362301976729285 25.89364864446614 a86.0,86.0 0 0,1 42.16139366436587,-11.88097634709845" fill="none" id="id120" stroke="none" /><text fill="#e1ed5e" style="font-size:6.75px; font-family:Arial;" text-anchor="middle"><textPath startOffset="22.145653131862474" xlink:href="#id120">December</textPath></text></svg>