<?xml version="1.0" encoding="utf-8" ?>
<svg baseProfile="full" height="200mm" version="1.1" viewBox="0,0,200,200" width="200mm" xmlns="http://www.w3.org/2000/svg" xmlns:ev="http://www.w3.org/2001/xml-events" xmlns:xlink="http://www.w3.org/1999/xlink"><defs /><rect fill="#1a1a1a" height="200" width="200" x="0" y="0" /><text alignment-baseline="middle" fill="#e1ed5e" style="dominant-baseline: central; font-size:9.0px; font-family:Arial;" text-anchor="middle" x="100.0" y="100.0">2025</text><line stroke="#e1ed5e" stroke-width="0.3" x1="100.0" x2="100.0" y1="15.0" y2="10.0" /><path d="M 100.0 14.0 a86.0,86.0 0 0,1 42.46469731375804,11.215312516191453" fill="none" id="id121" stroke="none" /><text fill="#e1ed5e" style="font-size:6.75px; font-family:Arial;" text-anchor="middle"><textPath startOffset="22.20632615414155" xlink:href="#id121">January</textPath></text><line stroke="#e1ed5e" stroke-width="0.3" x1="143.23703022742887" x2="145.7803849466894" y1="26.81831364943548" y2="22.513508569990506" /><path d="M 143.74570117128098 25.957352633546492 a86.0,86.0 0 0,1 28.547481713284135,27.462654790039103" fill="none" id="id122" stroke="none" /><text fill="#e1ed5e" style="font-size:6.75px; font-family:Arial;" text-anchor="middle"><textPath startOffset="19.985693538727396" xlink:href="#id122">February</textPath></text><line stroke="#e1ed5e" stroke-width="0.3" x1="172.23445277983987" x2="176.4835382374775" y1="55.19839476539836" y2="52.563006222186495" /><path d="M 173.08426987136738 54.67131705675599 a86.0,86.0 0 0,1 12.851231095245387,41.99856678651699" fill="none" id="id123" stroke="none" /><text fill="#e1ed5e" style="font-size:6.75px; font-family:Arial;" text-anchor="middle"><textPath startOffset="22.20632615414155" xlink:href="#id123">March</textPath></text><line stroke="#e1ed5e" stroke-width="0.3" x1="184.98032266829074" x2="189.97916517819016" y1="98.17113171792111" y2="98.06355123074" /><path d="M 185.9800911702706 98.14961562048488 a86.0,86.0 0 0,1 -9.607161424134198,41.387399972396054" fill="none" id="id124" stroke="none" /><text fill="#e1ed5e" style="font-size:6.75px; font-family:Arial;" text-anchor="middle"><textPath startOffset="21.466115282336823" xlink:href="#id124">April</textPath></text><line stroke="#e1ed5e" stroke-width="0.3" x1="174.80103733775053" x2="179.2010983576182" y1="140.37084112569926" y2="142.7455964860345" /><path d="M 175.68104954172406 140.8457921977663 a86.0,86.0 0 0,1 -30.038265399797805,32.042727171017184" fill="none" id="id125" stroke="none" /><text fill="#e1ed5e" style="font-size:6.75px; font-family:Arial;" text-anchor="middle"><textPath startOffset="22.206326154141568" xlink:href="#id125">May</textPath></text><path d="M 118.48025628344425 109.97397251340804 l 3.6011554001439134 1.943578293864017 a25.092165294848808,25.092165294848808 0 0,0 -0.2084126459697024,0.37832948998021737 l -3.5671663447227013 -2.0052783022420395" fill="#ff0000" stroke="none" /><path d="M 114.29624159901734 115.38237550388516 l 15.05772294531976 16.201709167694602 a43.1185533037893,43.1185533037893 0 0,0 -0.5480172049104003,0.5006007233231343 l -14.776606190942497 -16.458502657604317" fill="#fffe18" stroke="none" /><path d="M 113.20401910651253 116.32954008644616 l 17.305812254347057 21.40226795010381 a48.52359371867615,48.52359371867615 0 0,0 -0.6540114108808901,0.5195862189487696 l -16.934843350748814 -21.696988083057704" fill="#bdff1f" stroke="none" /><path d="M 112.04921762599082 117.19931262002967 l 12.543205749366903 17.904441901303517 a42.860948064256135,42.860948064256135 0 0,0 -0.6078970618797547,0.418117142262248 l -12.233151802864265 -18.117699832930857" fill="#fffb17" stroke="none" /><line stroke="#e1ed5e" stroke-width="0.3" x1="143.8653032363475" x2="146.44561519142675" y1="172.8068346515853" y2="177.08958963109032" /><path d="M 144.38136562736335 173.6633856474863 a86.0,86.0 0 0,1 -40.68145358897372,12.25698825130547" fill="none" id="id126" stroke="none" /><text fill="#e1ed5e" style="font-size:6.75px; font-family:Arial;" text-anchor="middle"><textPath startOffset="21.466115282336833" xlink:href="#id126">June</textPath></text><line stroke="#e1ed5e" stroke-width="0.3" x1="102.19456741930631" x2="102.32365962044197" y1="184.97166512339345" y2="189.96999836594603" /><path d="M 102.22038585953345 185.97133177190398 a86.0,86.0 0 0,1 -42.740103519485714,-10.115201625700543" fill="none" id="id127" stroke="none" /><text fill="#e1ed5e" style="font-size:6.75px; font-family:Arial;" text-anchor="middle"><textPath startOffset="22.20632615414155" xlink:href="#id127">July</textPath></text><path d="M 98.01472825383883 120.90594882070398 l -2.3983512122684383 25.255891438897585 a46.36951203533032,46.36951203533032 0 0,0 -0.7939507161528291,-0.08229623799785545 l 2.8327345250268605 -25.210865832443968" fill="#d7ff1c" stroke="none" /><path d="M 95.86986931433489 120.58985236759428 l -3.4604552114151073 17.251333517122212 a38.59497821508155,38.59497821508155 0 0,0 -0.6502491827829836,-0.13626603850655855 l 3.756895855627478 -17.18921149788911" fill="#ffc312" stroke="none" /><path d="M 95.16358092515715 120.4354850818985 l -6.302012111167295 26.62810490380996 a48.36368629073223,48.36368629073223 0 0,0 -0.8084720576224462,-0.19870276173616083 l 6.759437453532952 -26.515680883759767" fill="#bfff1e" stroke="none" /><path d="M 91.7346041902142 119.30500536409082 l -11.141660931823807 26.022930904178192 a49.30776467973693,49.30776467973693 0 0,0 -0.7773705459191456,-0.3407764025164595 l 11.587952152400696 -25.82728994836728" fill="#b4ff20" stroke="none" /><path d="M 90.10565033884886 118.52300852407294 l -9.228707157615299 17.276872882092285 a40.587224723911135,40.587224723911135 0 0,0 -0.6134028217585956,-0.33447612655237996 l 9.524732791242535 -17.11545610378014" fill="#ffdd14" stroke="none" /><line stroke="#e1ed5e" stroke-width="0.3" x1="58.666819895761336" x2="56.23545636021788" y1="174.27360380694188" y2="178.64263932499728" /><path d="M 58.180547188652646 175.14741091055294 a86.0,86.0 0 0,1 -31.652253787137756,-30.449443065178592" fill="none" id="id128" stroke="none" /><text fill="#e1ed5e" style="font-size:6.75px; font-family:Arial;" text-anchor="middle"><textPath startOffset="22.20632615414155" xlink:href="#id128">August</textPath></text><path d="M 88.54995079064634 117.60387380957326 l -8.004094471628749 12.305892006416023 a35.67993550341185,35.67993550341185 0 0,0 -0.5119651102144909,-0.33930255844597484 l 8.214734280583201 -12.166291426878729" fill="#ff9b0e" stroke="none" /><path d="M 87.95078237400918 117.19931262002967 l -11.49049513117188 16.401780103436625 a41.026229523327004,41.026229523327004 0 0,0 -0.5748999138149677,-0.41017582396755264 l 11.771122372835734 -16.20156001762485" fill="#ffe315" stroke="none" /><path d="M 86.79598089348748 116.32954008644616 l -12.119236832941942 14.987979196656168 a40.27473532405399,40.27473532405399 0 0,0 -0.5353276997095178,-0.4405382519366823 l 12.375434661196149 -14.777145825862306" fill="#ffd914" stroke="none" /><path d="M 86.24171649860922 115.8653595955263 l -8.785964309115963 10.131531534692812 a34.41048470710639,34.41048470710639 0 0,0 -0.44415357238343356,-0.39191388677801947 l 8.959060234405984 -9.978794506142503" fill="#ff890c" stroke="none" /><path d="M 84.67929136418377 114.36230785411682 l -20.118646816612145 18.860106673716977 a48.57650401112443,48.57650401112443 0 0,0 -0.5666185306921337,-0.6149525065473763 l 20.44031175530001 -18.511002912368255" fill="#bcff1f" stroke="none" /><path d="M 83.95833913139862 113.55231037782056 l -13.33372354091845 11.264591702737714 a38.45506258066783,38.45506258066783 0 0,0 -0.42282989401050425,-0.5093258458951712 l 13.525649434822492 -11.033404599728781" fill="#ffc111" stroke="none" /><path d="M 83.06392112726016 112.41649034213515 l -14.547222688977424 10.665128060622731 a39.03792240010423,39.03792240010423 0 0,0 -0.3926475273607114,-0.5453530735808013 l 14.728650008713743 -10.413141381590792" fill="#ffc912" stroke="none" /><path d="M 82.24976979558568 111.22182372390057 l -53.25069061324296 33.6654711717017 a84.0,84.0 0 0,0 -0.7621414413281764,-1.2288146745389432 l 53.82229669423909 -32.743860165797486" fill="#4dd2ff" stroke="none" /><path d="M 82.05923443525364 110.91462005526583 l -23.473051020626514 14.280295481450384 a48.47564309082624,48.47564309082624 0 0,0 -0.42755315063085203,-0.7166036732685859 l 23.715385046955596 -13.874129714295687" fill="#beff1f" stroke="none" /><line stroke="#e1ed5e" stroke-width="0.3" x1="26.63291911575756" x2="22.317208475507996" y1="142.92168965132927" y2="145.44649492493687" /><path d="M 25.769776987707644 143.4266507060508 a86.0,86.0 0 0,1 -11.730757126820373,-40.83630448921669" fill="none" id="id129" stroke="none" /><text fill="#e1ed5e" style="font-size:6.75px; font-family:Arial;" text-anchor="middle"><textPath startOffset="21.46611528233685" xlink:href="#id129">September</textPath></text><path d="M 81.69416730710424 110.29060199501025 l -20.533300512246672 11.542770370531857 a44.555296172051364,44.555296172051364 0 0,0 -0.37007117791810945,-0.6717866823613383 l 20.728948099616296 -11.187613169772696" fill="#eeff19" stroke="none" /><path d="M 81.35079622478065 109.6543875284942 l -14.735537885800452 7.628346759734643 a37.5930030757128,37.5930030757128 0 0,0 -0.29254755092199775,-0.5772240719624573 l 14.864664106508718 -7.373568476069501" fill="#ffb510" stroke="none" /><path d="M 80.73074385275274 108.34839909993369 l -25.627892022924875 11.103276071606334 a48.92976170791656,48.92976170791656 0 0,0 -0.3281766155740141,-0.7757125774119019 l 25.815219619691195 -10.660488968528274" fill="#b8ff1f" stroke="none" /><path d="M 80.45479744820244 107.68017299344265 l -26.014828677479304 10.222374728955602 a48.95117629399145,48.95117629399145 0 0,0 -0.30141271978284306,-0.786893499649853 l 26.186935676855654 -9.773057662472592" fill="#b8ff1f" stroke="none" /><path d="M 80.20201598880116 107.00284435728193 l -11.988553128518776 4.2405313379651846 a33.71642686227472,33.71642686227472 0 0,0 -0.1888267117540734,-0.548818812181847 l 12.059770671216079 -4.033539822694041" fill="#ff7f0b" stroke="none" /><path d="M 79.86692584326677 105.97154293290107 l -29.12692948253099 8.639153094776963 a51.381128801861976,51.381128801861976 0 0,0 -0.2442007133109188,-0.8500947191591638 l 29.271322832728014 -8.136500900113203" fill="#9bff22" stroke="none" /><path d="M 79.76711848015287 105.62410040840567 l -14.506118463068242 4.032241610889422 a36.056109898415244,36.056109898415244 0 0,0 -0.16107109662870026,-0.5994054704740933 l 14.573377636038717 -3.781945207239789" fill="#ffa00e" stroke="none" /><path d="M 79.50377843672027 104.57218783832718 l -16.987579651213327 3.789498705607438 a38.40511886906026,38.40511886906026 0 0,0 -0.13837905891093158,-0.6464608944710634 l 17.050292748848697 -3.4965239917202107" fill="#ffc011" stroke="none" /><path d="M 79.23777060512086 103.15116336523772 l -28.74907683870965 4.363357903216805 a50.078313418587335,50.078313418587335 0 0,0 -0.12201449664524784,-0.8533691053536259 l 28.819925386371498 -3.8678433258827787" fill="#abff21" stroke="none" /><path d="M 79.18660465613746 102.79330883721812 l -20.022481501190526 2.6871624545778032 a41.201995137184085,41.201995137184085 0 0,0 -0.08828702843771365,-0.7037344830306884 l 20.065770038875087 -2.342110217259706" fill="#ffe515" stroke="none" /><path d="M 79.10278846688536 102.07522291339032 l -27.768959650287016 2.757630186973451 a48.90554862939225,48.90554862939225 0 0,0 -0.07597920325357367,-0.8384241766583034 l 27.812313449817665 -2.279224621766582" fill="#b8ff1f" stroke="none" /><path d="M 79.04373962182676 101.35467743843564 l -31.394019056675415 2.0294064184367615 a52.45954422654739,52.45954422654739 0 0,0 -0.05049518188549737,-0.9016253933101407 l 31.424300589448443 -1.4887093087911831" fill="#8fff24" stroke="none" /><path d="M 79.0235259727143 100.99374915477108 l -13.671990989275212 0.6477032065521121 a34.687324685803304,34.687324685803304 0 0,0 -0.023121360128530256,-0.5966595674631057 l 13.681114482254944 -0.4122663920750097" fill="#ff8d0d" stroke="none" /><line stroke="#e1ed5e" stroke-width="0.3" x1="15.007084014347285" x2="10.007500721073583" y1="101.09737516637583" y2="101.16192664675087" /><path d="M 14.007167355692545 101.11028546245083 a86.0,86.0 0 0,1 10.666146001902534,-42.60595125391555" fill="none" id="id130" stroke="none" /><text fill="#e1ed5e" style="font-size:6.75px; font-family:Arial;" text-anchor="middle"><textPath startOffset="22.20632615414155" xlink:href="#id130">October</textPath></text><path d="M 79.00019446554 99.90962569577889 l -18.519730575540134 -0.07970110782123895 a39.51990207471908,39.51990207471908 0 0,0 0.008782814366252016,-0.6802386516672226 l 18.515614754056166 0.3984760175489335" fill="#ffcf13" stroke="none" /><path d="M 79.00486145842228 99.54816195383935 l -32.70289566290683 -0.7038016182108492 a53.71046807150223,53.71046807150223 0 0,0 0.02784838034727793,-0.9241521671433545 l 32.68593558810391 1.2666239327791982" fill="#81ff25" stroke="none" /><path d="M 79.03285615573316 98.82574320788736 l -31.83604406020573 -1.782965350424493 a52.88593211502801,52.88593211502801 0 0,0 0.05872708005253229,-0.9084819351917571 l 31.800636389148785 2.3307063498692617" fill="#8aff24" stroke="none" /><path d="M 79.08570108090925 98.10471618934814 l -28.201351517735564 -2.555646984718052 a49.316912948578704,49.316912948578704 0 0,0 0.08389247061916887,-0.8447857303677754 l 28.153181921434165 3.0407082457902574" fill="#b4ff20" stroke="none" /><path d="M 79.26566170972629 96.67025291283419 l -27.99090494780362 -4.495086021665069 a49.34954246789789,49.34954246789789 0 0,0 0.14191080973643108,-0.8375656321747807 l 27.909382276546967 4.9762374421556785" fill="#b3ff20" stroke="none" /><line stroke="#e1ed5e" stroke-width="0.3" x1="26.266209847984243" x2="21.928928074336255" y1="57.711370442889674" y2="55.22380399835377" /><path d="M 25.398753493254645 57.213857153982495 a86.0,86.0 0 0,1 29.58750427330803,-30.492523968695096" fill="none" id="id131" stroke="none" /><text fill="#e1ed5e" style="font-size:6.75px; font-family:Arial;" text-anchor="middle"><textPath startOffset="21.46611528233685" xlink:href="#id131">November</textPath></text><line stroke="#e1ed5e" stroke-width="0.3" x1="56.762969772571076" x2="54.21961505331055" y1="26.818313649435495" y2="22.513508569990535" /><path d="M 56.25429882871897 25.957352633546506 a86.0,86.0 0 0,1 42.265352541879196,-11.944610805530505" fill="none" id="id132" stroke="none" /><text fill="#e1ed5e" style="font-size:6.75px; font-family:Arial;" text-anchor="middle"><textPath startOffset="22.20632615414155" xlink:href="#id132">December</textPath></text></svg>