<?xml version="1.0" encoding="utf-8" ?>
<svg baseProfile="full" height="200mm" version="1.1" viewBox="0,0,200,200" width="200mm" xmlns="http://www.w3.org/2000/svg" xmlns:ev="http://www.w3.org/2001/xml-events" xmlns:xlink="http://www.w3.org/1999/xlink"><defs /><rect fill="#1a1a1a" height="200" width="200" x="0" y="0" /><text alignment-baseline="middle" fill="#e1ed5e" style="dominant-baseline: central; font-size:9.0px; font-family:Arial;" text-anchor="middle" x="100.0" y="100.0">2026</text><line stroke="#e1ed5e" stroke-width="0.3" x1="100.0" x2="100.0" y1="15.0" y2="10.0" /><path d="M 100.0 14.0 a86.0,86.0 0 0,1 42.46469731375804,11.215312516191453" fill="none" id="id133" stroke="none" /><text fill="#e1ed5e" style="font-size:6.75px; font-family:Arial;" text-anchor="middle"><textPath startOffset="22.20632615414155" xlink:href="#id133">January</textPath></text><path d="M 100.36148047927253 79.00311137660856 l 0.7889160780894047 -45.82483418795472 a66.83162463770853,66.83162463770853 0 0,0 1.1500556700343956,0.029702544962263436 l -1.577598383318668 45.804464850850096" fill="#8fff24" stroke="none" /><path d="M 103.59715602781102 79.31037775812273 l 5.297172646573739 -30.467541624628524 a51.92460396991497,51.92460396991497 0 0,0 0.8792686907857831,0.16068073309706932 l -5.8208364584624235 30.371845410180715" fill="#ff0000" stroke="none" /><line stroke="#e1ed5e" stroke-width="0.3" x1="143.23703022742887" x2="145.7803849466894" y1="26.81831364943548" y2="22.513508569990506" /><path d="M 143.74570117128098 25.957352633546492 a86.0,86.0 0 0,1 28.547481713284135,27.462654790039103" fill="none" id="id134" stroke="none" /><text fill="#e1ed5e" style="font-size:6.75px; font-family:Arial;" text-anchor="middle"><textPath startOffset="19.985693538727396" xlink:href="#id134">February</textPath></text><path d="M 110.68208982089419 81.91981866633111 l 31.78087792971264 -53.79135033937582 a83.47826480718525,83.47826480718525 0 0,0 1.2308589252682738,0.7415787302996201 l -32.702098921198555 53.23632499961759" fill="#4cdbff" stroke="none" /><path d="M 112.48926042617603 83.11751280151076 l 21.102114260372193 -28.525001617799532 a56.48203691381414,56.48203691381414 0 0,0 0.7766383524964203,0.5849479056987107 l -21.589998766626998 28.157537122594974" fill="#ff7c0b" stroke="none" /><path d="M 116.15771136456269 86.58626213691792 l 48.47313409368808 -40.241213589246215 a84.0,84.0 0 0,0 0.9140060316943646,1.1204633215675965 l -49.158638617458855 39.400866098070516" fill="#4dd2ff" stroke="none" /><line stroke="#e1ed5e" stroke-width="0.3" x1="172.23445277983987" x2="176.4835382374775" y1="55.19839476539836" y2="52.563006222186495" /><path d="M 173.08426987136738 54.67131705675599 a86.0,86.0 0 0,1 12.851231095245387,41.99856678651699" fill="none" id="id135" stroke="none" /><text fill="#e1ed5e" style="font-size:6.75px; font-family:Arial;" text-anchor="middle"><textPath startOffset="22.20632615414155" xlink:href="#id135">March</textPath></text><path d="M 119.04729006885535 91.15688171328212 l 56.26652457529311 -26.122956630740127 a83.03491477316297,83.03491477316297 0 0,0 0.5907249465836427,1.30158411623811 l -56.7078518388401 25.150550505659957" fill="#4be3ff" stroke="none" /><path d="M 119.47837535516314 92.15188598940014 l 44.1453491520876 -17.786788008040176 a68.5939248161221,68.5939248161221 0 0,0 0.43183615712481127,1.0989759172613347 l -44.44497885909411 17.02426308588306" fill="#6bff28" stroke="none" /><path d="M 120.91429891909075 98.10471618934814 l 61.55486053350647 -5.578189882788579 a82.80709552848991,82.80709552848991 0 0,0 0.11642486851843205,1.4206782893029388 l -61.641759885844394 4.517797676277872" fill="#4ae7ff" stroke="none" /><line stroke="#e1ed5e" stroke-width="0.3" x1="184.98032266829074" x2="189.97916517819016" y1="98.17113171792111" y2="98.06355123074" /><path d="M 185.9800911702706 98.14961562048488 a86.0,86.0 0 0,1 -9.607161424134198,41.387399972396054" fill="none" id="id136" stroke="none" /><text fill="#e1ed5e" style="font-size:6.75px; font-family:Arial;" text-anchor="middle"><textPath startOffset="21.466115282336823" xlink:href="#id136">April</textPath></text><path d="M 120.99513854157772 99.54816195383933 l 46.893713376012215 -1.0092033347184324 a67.90457169149286,67.90457169149286 0 0,0 0.015090959655179583,1.1688114561146945 l -46.90413734278511 0.20185562054327527" fill="#79ff26" stroke="none" /><path d="M 120.81339534386255 102.79330883721812 l 46.884883795235844 6.29229196262758 a68.30523508699345,68.30523508699345 0 0,0 -0.16642391303619802,1.1639684601582487 l -46.76962583118304 -7.0984058947662385" fill="#70ff27" stroke="none" /><path d="M 120.02730092923936 106.31721596034902 l 44.82594152038875 14.13945664524584 a68.00307721215813,68.00307721215813 0 0,0 -0.36173669901612077,1.1133110833540425 l -44.57591257035639 -14.908966628577677" fill="#77ff27" stroke="none" /><path d="M 119.12269723197855 108.67885076344098 l 42.71429601018754 19.385915911377133 a67.90762005654207,67.90762005654207 0 0,0 -0.4922506420286795,1.0602640902568452 l -42.374270751319024 -20.118300068912806" fill="#79ff26" stroke="none" /><line stroke="#e1ed5e" stroke-width="0.3" x1="174.80103733775053" x2="179.2010983576182" y1="140.37084112569926" y2="142.7455964860345" /><path d="M 175.68104954172406 140.8457921977663 a86.0,86.0 0 0,1 -30.038265399797805,32.042727171017184" fill="none" id="id137" stroke="none" /><text fill="#e1ed5e" style="font-size:6.75px; font-family:Arial;" text-anchor="middle"><textPath startOffset="22.206326154141568" xlink:href="#id137">May</textPath></text><path d="M 117.35343817320211 111.8261652097733 l 38.74555106406075 26.404640017381606 a67.88734095366519,67.88734095366519 0 0,0 -0.6663921371125382,0.9599875753847557 l -38.285298019786076 -27.06766885495338" fill="#79ff26" stroke="none" /><path d="M 116.27256486870786 113.27417163493432 l 35.26493337595382 28.766994146516865 a66.50994922251833,66.50994922251833 0 0,0 -0.7313053963027046,0.8809044602942003 l -34.764531979757564 -29.369759863924834" fill="#96ff23" stroke="none" /><path d="M 115.80600337817218 113.82643327865902 l 34.84045197598067 30.476975938741525 a67.28934171341439,67.28934171341439 0 0,0 -0.7701141806575271,0.8652314458931079 l -34.3106789456748 -31.0721815543755" fill="#85ff25" stroke="none" /><line stroke="#e1ed5e" stroke-width="0.3" x1="143.8653032363475" x2="146.44561519142675" y1="172.8068346515853" y2="177.08958963109032" /><path d="M 144.38136562736335 173.6633856474863 a86.0,86.0 0 0,1 -40.68145358897372,12.25698825130547" fill="none" id="id138" stroke="none" /><text fill="#e1ed5e" style="font-size:6.75px; font-family:Arial;" text-anchor="middle"><textPath startOffset="21.466115282336833" xlink:href="#id138">June</textPath></text><line stroke="#e1ed5e" stroke-width="0.3" x1="102.19456741930631" x2="102.32365962044197" y1="184.97166512339345" y2="189.96999836594603" /><path d="M 102.22038585953345 185.97133177190398 a86.0,86.0 0 0,1 -42.740103519485714,-10.115201625700543" fill="none" id="id139" stroke="none" /><text fill="#e1ed5e" style="font-size:6.75px; font-family:Arial;" text-anchor="middle"><textPath startOffset="22.20632615414155" xlink:href="#id139">July</textPath></text><line stroke="#e1ed5e" stroke-width="0.3" x1="58.666819895761336" x2="56.23545636021788" y1="174.27360380694188" y2="178.64263932499728" /><path d="M 58.180547188652646 175.14741091055294 a86.0,86.0 0 0,1 -31.652253787137756,-30.449443065178592" fill="none" id="id140" stroke="none" /><text fill="#e1ed5e" style="font-size:6.75px; font-family:Arial;" text-anchor="middle"><textPath startOffset="22.20632615414155" xlink:href="#id140">August</textPath></text><line stroke="#e1ed5e" stroke-width="0.3" x1="26.63291911575756" x2="22.317208475507996" y1="142.92168965132927" y2="145.44649492493687" /><path d="M 25.769776987707644 143.4266507060508 a86.0,86.0 0 0,1 -11.730757126820373,-40.83630448921669" fill="none" id="id141" stroke="none" /><text fill="#e1ed5e" style="font-size:6.75px; font-family:Arial;" text-anchor="middle"><textPath startOffset="21.46611528233685" xlink:href="#id141">September</textPath></text><line stroke="#e1ed5e" stroke-width="0.3" x1="15.007084014347285" x2="10.007500721073583" y1="101.09737516637583" y2="101.16192664675087" /><path d="M 14.007167355692545 101.11028546245083 a86.0,86.0 0 0,1 10.666146001902534,-42.60595125391555" fill="none" id="id142" stroke="none" /><text fill="#e1ed5e" style="font-size:6.75px; font-family:Arial;" text-anchor="middle"><textPath startOffset="22.20632615414155" xlink:href="#id142">October</textPath></text><line stroke="#e1ed5e" stroke-width="0.3" x1="26.266209847984243" x2="21.928928074336255" y1="57.711370442889674" y2="55.22380399835377" /><path d="M 25.398753493254645 57.213857153982495 a86.0,86.0 0 0,1 29.58750427330803,-30.492523968695096" fill="none" id="id143" stroke="none" /><text fill="#e1ed5e" style="font-size:6.75px; font-family:Arial;" text-anchor="middle"><textPath startOffset="21.46611528233685" xlink:href="#id143">November</textPath></text><line stroke="#e1ed5e" stroke-width="0.3" x1="56.762969772571076" x2="54.21961505331055" y1="26.818313649435495" y2="22.513508569990535" /><path d="M 56.25429882871897 25.957352633546506 a86.0,86.0 0 0,1 42.265352541879196,-11.944610805530505" fill="none" id="id144" stroke="none" /><text fill="#e1ed5e" style="font-size:6.75px; font-family:Arial;" text-anchor="middle"><textPath startOffset="22.20632615414155" xlink:href="#id144">December</textPath></text></svg>