<?xml version="1.0" encoding="utf-8" ?>
<svg baseProfile="full" height="200mm" version="1.1" viewBox="0,0,200,200" width="200mm" xmlns="http://www.w3.org/2000/svg" xmlns:ev="http://www.w3.org/2001/xml-events" xmlns:xlink="http://www.w3.org/1999/xlink"><defs /><rect fill="#1a1a1a" height="200" width="200" x="0" y="0" /><rect fill="#1a1a1a" height="200" width="180" x="10" y="0" /><text alignment-baseline="middle" fill="#e1ed5e" style="dominant-baseline: central; font-size:9.0px; font-family:Arial;" text-anchor="middle" x="100.0" y="100.0">2026</text><line stroke="#e1ed5e" stroke-width="0.3" x1="100.0" x2="100.0" y1="15.0" y2="10.0" /><path d="M 100.0 14.0 a86.0,86.0 0 0,1 42.46469731375804,11.215312516191453" fill="none" id="id133" stroke="none" /><text fill="#e1ed5e" style="font-size:6.75px; font-family:Arial;" text-anchor="middle"><textPath startOffset="22.20632615414155" xlink:href="#id133">January</textPath></text><path d="M 100.36148047927253 79.00311137660856 l 0.5263187528825136 -30.571654261708492 a51.57618445337931,51.57618445337931 0 0,0 0.8875361580822776,0.022922440476542297 l -1.052481546159659 30.55806502908959" fill="#ffc712" stroke="none" /><path d="M 103.59715602781102 79.31037775812273 l 3.533964357653897 -20.32616517349429 a41.631090488419176,41.631090488419176 0 0,0 0.7049628043565941,0.12882744648732228 l -3.883322283113392 20.262322245656225" fill="#ff0000" stroke="none" /><line stroke="#e1ed5e" stroke-width="0.3" x1="143.23703022742887" x2="145.7803849466894" y1="26.81831364943548" y2="22.513508569990506" /><path d="M 143.74570117128098 25.957352633546492 a86.0,86.0 0 0,1 28.547481713284135,27.462654790039103" fill="none" id="id134" stroke="none" /><text fill="#e1ed5e" style="font-size:6.75px; font-family:Arial;" text-anchor="middle"><textPath startOffset="19.985693538727396" xlink:href="#id134">February</textPath></text><path d="M 110.68208982089419 81.91981866633111 l 21.202346487837918 -35.88644877798806 a62.681850996392825,62.681850996392825 0 0,0 0.9242228013417616,0.5568338966089047 l -21.816931355397315 35.516168271920534" fill="#79ff26" stroke="none" /><path d="M 112.48926042617603 83.11751280151076 l 14.078098760011262 -19.03021588026317 a44.67154370010649,44.67154370010649 0 0,0 0.6142419076645822,0.46263427028274945 l -14.403586821434228 18.785065020474576" fill="#ff4006" stroke="none" /><path d="M 116.15771136456269 86.58626213691792 l 32.33844535946388 -26.846588552313303 a63.029922259792855,63.029922259792855 0 0,0 0.6858301086033043,0.8407466196827963 l -32.7957739601436 26.285957763022406" fill="#74ff27" stroke="none" /><line stroke="#e1ed5e" stroke-width="0.3" x1="172.23445277983987" x2="176.4835382374775" y1="55.19839476539836" y2="52.563006222186495" /><path d="M 173.08426987136738 54.67131705675599 a86.0,86.0 0 0,1 12.851231095245387,41.99856678651699" fill="none" id="id135" stroke="none" /><text fill="#e1ed5e" style="font-size:6.75px; font-family:Arial;" text-anchor="middle"><textPath startOffset="22.20632615414155" xlink:href="#id135">March</textPath></text><path d="M 119.04729006885535 91.15688171328212 l 37.537740535369736 -17.427711688665838 a62.38607373506213,62.38607373506213 0 0,0 0.4438254699891465,0.9779105918256525 l -37.832168322322225 16.77897908799812" fill="#7eff26" stroke="none" /><path d="M 119.47837535516314 92.15188598940014 l 29.45119988878816 -11.866306622688008 a52.751888254921234,52.751888254921234 0 0,0 0.3321018992009694,0.8451631093806968 l -29.65109533787083 11.357594508411527" fill="#ffdd14" stroke="none" /><path d="M 120.91429891909075 98.10471618934814 l 41.06580957040743 -3.721442652761381 a62.23408603438129,62.23408603438129 0 0,0 0.08749969115176574,1.067717860641997 l -41.123783745378695 3.014010874911615" fill="#80ff25" stroke="none" /><line stroke="#e1ed5e" stroke-width="0.3" x1="184.98032266829074" x2="189.97916517819016" y1="98.17113171792111" y2="98.06355123074" /><path d="M 185.9800911702706 98.14961562048488 a86.0,86.0 0 0,1 -9.607161424134198,41.387399972396054" fill="none" id="id136" stroke="none" /><text fill="#e1ed5e" style="font-size:6.75px; font-family:Arial;" text-anchor="middle"><textPath startOffset="21.466115282336823" xlink:href="#id136">April</textPath></text><path d="M 120.99513854157772 99.54816195383933 l 31.284748058203206 -0.6732815508339592 a52.29199209241787,52.29199209241787 0 0,0 0.011621254995037565,0.9000790064380028 l -31.29170232031596 0.13466628633549377" fill="#ffd413" stroke="none" /><path d="M 120.81339534386255 102.79330883721812 l 31.27885747735214 4.197849873415185 a52.55929132043747,52.55929132043747 0 0,0 -0.12805933420500434,0.8956466851675866 l -31.201964092130535 -4.735642030563181" fill="#ffd914" stroke="none" /><path d="M 120.02730092923936 106.31721596034902 l 29.905251386094605 9.433020057069747 a52.35770922536583,52.35770922536583 0 0,0 -0.27851246854816647,0.8571732393487386 l -29.73844666653019 -9.946392196396282" fill="#ffd513" stroke="none" /><path d="M 119.12269723197855 108.67885076344098 l 28.496484772856544 12.933151407778766 a52.29402578362482,52.29402578362482 0 0,0 -0.37907038628095363,0.8164838883644763 l -28.26963976973576 -13.421755363422072" fill="#ffd413" stroke="none" /><line stroke="#e1ed5e" stroke-width="0.3" x1="174.80103733775053" x2="179.2010983576182" y1="140.37084112569926" y2="142.7455964860345" /><path d="M 175.68104954172406 140.8457921977663 a86.0,86.0 0 0,1 -30.038265399797805,32.042727171017184" fill="none" id="id137" stroke="none" /><text fill="#e1ed5e" style="font-size:6.75px; font-family:Arial;" text-anchor="middle"><textPath startOffset="22.206326154141568" xlink:href="#id137">May</textPath></text><path d="M 117.35343817320211 111.8261652097733 l 25.848769827544565 17.61563440045023 a52.280496750015075,52.280496750015075 0 0,0 -0.5131930558648092,0.7392928727200049 l -25.54171586451762 -18.05796853535725" fill="#ffd413" stroke="none" /><path d="M 116.27256486870786 113.27417163493432 l 23.526704893462117 19.191659168666984 a51.361581394755014,51.361581394755014 0 0,0 -0.5647425998020139,0.6802688419898055 l -23.19286629376656 -19.59378926777056" fill="#ffc312" stroke="none" /><path d="M 115.80600337817218 113.82643327865902 l 23.243515683278 20.33245919712514 a51.881546566218944,51.881546566218944 0 0,0 -0.5937747897023031,0.6671122707938651 l -22.89008204392736 -20.72954563765987" fill="#ffcd13" stroke="none" /><path d="M 114.55890576462653 115.13401014063108 l 21.444736993009005 22.291844755524455 a51.93223379104283,51.93223379104283 0 0,0 -0.6495588979497986,0.6141984814337184 l -21.057842260668398 -22.657677873704095" fill="#ffce13" stroke="none" /><path d="M 113.75828350139079 115.86535959552629 l 20.01761765187751 23.083308485443492 a51.55395468823808,51.55395468823808 0 0,0 -0.675441559700804,0.5756259505687235 l -19.61731061559966 -23.424458826235163" fill="#ffc712" stroke="none" /><path d="M 112.63410532772338 116.77436683061366 l 19.016948937899897 25.24890122479801 a52.60935557657414,52.60935557657414 0 0,0 -0.7280509251022077,0.5385946691512091 l -18.579513042379126 -25.57250584268899" fill="#ffda14" stroke="none" /><line stroke="#e1ed5e" stroke-width="0.3" x1="143.8653032363475" x2="146.44561519142675" y1="172.8068346515853" y2="177.08958963109032" /><path d="M 144.38136562736335 173.6633856474863 a86.0,86.0 0 0,1 -40.68145358897372,12.25698825130547" fill="none" id="id138" stroke="none" /><text fill="#e1ed5e" style="font-size:6.75px; font-family:Arial;" text-anchor="middle"><textPath startOffset="21.466115282336833" xlink:href="#id138">June</textPath></text><path d="M 108.92500713936063 119.00905698771935 l 13.315490108442368 28.360191352062827 a52.33053989885342,52.33053989885342 0 0,0 -0.8186789121687303,0.37581533491169977 l -12.82534320050622 -28.585193757308602" fill="#ffd513" stroke="none" /><path d="M 108.2653958097858 119.30500536409082 l 12.456295783771274 29.093447241534832 a52.6478747635409,52.6478747635409 0 0,0 -0.8361699443068689,0.3495191045356616 l -11.953654379966943 -29.30355138909047" fill="#ffdb14" stroke="none" /><path d="M 107.59598834532513 119.57807347666477 l 10.80104719834578 27.838865208933743 a50.86076081921013,50.86076081921013 0 0,0 -0.8189303727506659,0.30964939388781526 l -10.32024660483484 -28.02066285292819" fill="#ffba11" stroke="none" /><path d="M 105.18746579009965 120.34920634021253 l 15.562397370298964 61.04761902063758 a84.0,84.0 0 0,0 -1.4041868610271555,0.3451149667438802 l -14.509257224528598 -61.306455245695496" fill="#4dd2ff" stroke="none" /><path d="M 104.48393922423573 120.51570834832081 l 6.259038117306197 28.6374533940218 a50.31346610431224,50.31346610431224 0 0,0 -0.847682567275678,0.17764012383584019 l -5.765164088601141 -28.740949498584182" fill="#ffaf10" stroke="none" /><line stroke="#e1ed5e" stroke-width="0.3" x1="102.19456741930631" x2="102.32365962044197" y1="184.97166512339345" y2="189.96999836594603" /><path d="M 102.22038585953345 185.97133177190398 a86.0,86.0 0 0,1 -42.740103519485714,-10.115201625700543" fill="none" id="id139" stroke="none" /><text fill="#e1ed5e" style="font-size:6.75px; font-family:Arial;" text-anchor="middle"><textPath startOffset="22.20632615414155" xlink:href="#id139">July</textPath></text><line stroke="#e1ed5e" stroke-width="0.3" x1="58.666819895761336" x2="56.23545636021788" y1="174.27360380694188" y2="178.64263932499728" /><path d="M 58.180547188652646 175.14741091055294 a86.0,86.0 0 0,1 -31.652253787137756,-30.449443065178592" fill="none" id="id140" stroke="none" /><text fill="#e1ed5e" style="font-size:6.75px; font-family:Arial;" text-anchor="middle"><textPath startOffset="22.20632615414155" xlink:href="#id140">August</textPath></text><line stroke="#e1ed5e" stroke-width="0.3" x1="26.63291911575756" x2="22.317208475507996" y1="142.92168965132927" y2="145.44649492493687" /><path d="M 25.769776987707644 143.4266507060508 a86.0,86.0 0 0,1 -11.730757126820373,-40.83630448921669" fill="none" id="id141" stroke="none" /><text fill="#e1ed5e" style="font-size:6.75px; font-family:Arial;" text-anchor="middle"><textPath startOffset="21.46611528233685" xlink:href="#id141">September</textPath></text><line stroke="#e1ed5e" stroke-width="0.3" x1="15.007084014347285" x2="10.007500721073583" y1="101.09737516637583" y2="101.16192664675087" /><path d="M 14.007167355692545 101.11028546245083 a86.0,86.0 0 0,1 10.666146001902534,-42.60595125391555" fill="none" id="id142" stroke="none" /><text fill="#e1ed5e" style="font-size:6.75px; font-family:Arial;" text-anchor="middle"><textPath startOffset="22.20632615414155" xlink:href="#id142">October</textPath></text><line stroke="#e1ed5e" stroke-width="0.3" x1="26.266209847984243" x2="21.928928074336255" y1="57.711370442889674" y2="55.22380399835377" /><path d="M 25.398753493254645 57.213857153982495 a86.0,86.0 0 0,1 29.58750427330803,-30.492523968695096" fill="none" id="id143" stroke="none" /><text fill="#e1ed5e" style="font-size:6.75px; font-family:Arial;" text-anchor="middle"><textPath startOffset="21.46611528233685" xlink:href="#id143">November</textPath></text><line stroke="#e1ed5e" stroke-width="0.3" x1="56.762969772571076" x2="54.21961505331055" y1="26.818313649435495" y2="22.513508569990535" /><path d="M 56.25429882871897 25.957352633546506 a86.0,86.0 0 0,1 42.265352541879196,-11.944610805530505" fill="none" id="id144" stroke="none" /><text fill="#e1ed5e" style="font-size:6.75px; font-family:Arial;" text-anchor="middle"><textPath startOffset="22.20632615414155" xlink:href="#id144">December</textPath></text></svg>